<svg width="90" height="90" viewBox="0 0 90 90" fill="none" xmlns="http://www.w3.org/2000/svg">
<path d="M55.5713 80.8298C55.5213 80.8298 55.4813 80.8298 55.4313 80.8198C54.7613 80.7698 54.2113 80.3498 53.9713 79.7198L45.5512 58.6698L47.5413 59.2698C48.1112 59.4398 48.7212 59.5198 49.4612 59.5198C51.9112 59.5198 54.0513 58.2598 55.2113 56.1398L55.5413 55.4698L56.4713 55.4798C57.8413 55.7098 59.0013 55.5898 60.4713 54.9598L61.4212 54.5498L69.0212 73.7098C69.2612 74.3598 69.1112 75.0898 68.6312 75.5798C68.1612 76.0498 67.4813 76.1898 66.8512 75.9598L60.5013 73.9598L57.1012 79.9398C56.7912 80.4998 56.2013 80.8298 55.5713 80.8298ZM55.8313 78.9998C55.8313 79.0098 55.8313 79.0098 55.8313 78.9998V78.9998ZM48.8313 61.5098L55.6212 78.4898L58.9613 72.6198C59.3913 71.9698 60.0713 71.7198 60.7412 71.9498L66.9413 73.8998L60.3012 57.1798C59.3712 57.4898 58.5212 57.6298 57.6312 57.6298C57.3112 57.6298 56.9912 57.5998 56.7012 57.5598C55.1212 60.0698 52.4612 61.5398 49.4612 61.5398C49.2412 61.5298 49.0413 61.5298 48.8313 61.5098ZM67.4912 74.0798C67.5012 74.0798 67.5012 74.0798 67.4912 74.0798V74.0798ZM60.1312 73.8598H60.1413H60.1312ZM34.3313 80.6398C33.6813 80.6398 33.1012 80.2798 32.8012 79.6798L29.4212 73.7498L23.0212 75.7698C22.4012 75.9998 21.6612 75.8198 21.1912 75.2998C20.7312 74.7798 20.6312 74.0398 20.9412 73.4198L28.5112 54.4798L29.4712 54.9198C30.3812 55.3398 31.3313 55.5598 32.2213 55.5598C32.5813 55.5598 32.9913 55.4898 33.3813 55.4298L33.6912 55.4198H34.3113L34.6612 56.1198C35.7412 58.1398 37.9912 59.4698 40.3912 59.4698C40.9812 59.4698 41.6912 59.3498 42.2812 59.1498L44.3212 58.4698L35.9412 79.5398C35.7012 80.1698 35.1012 80.6098 34.4212 80.6498C34.4012 80.6398 34.3613 80.6398 34.3313 80.6398ZM34.0912 78.7998C34.0912 78.7998 34.0912 78.8098 34.0912 78.7998V78.7998ZM34.5613 78.7298C34.5613 78.7398 34.5613 78.7398 34.5613 78.7298V78.7298ZM29.6712 71.6498C30.1612 71.6498 30.6212 71.8998 30.9212 72.3498L34.3012 78.2798L41.0012 61.4298C40.8012 61.4498 40.6013 61.4598 40.4013 61.4598C37.4513 61.4598 34.6613 59.9198 33.1513 57.4798C32.0713 57.6298 30.8212 57.5098 29.6213 57.1098L22.9912 73.6798L29.2013 71.7198C29.3512 71.6798 29.5112 71.6498 29.6712 71.6498ZM22.7712 74.2198C22.7712 74.2298 22.7712 74.2298 22.7712 74.2198V74.2198ZM22.4012 73.8698C22.3912 73.8698 22.3812 73.8698 22.3812 73.8798L22.4012 73.8698ZM29.8112 73.6298H29.8012H29.8112ZM49.3912 57.0398C48.5412 57.0398 47.7013 56.7698 47.0212 56.2498L46.0512 55.4998C45.3912 55.0298 44.3912 55.0298 43.7112 55.5198L42.7413 56.1898C41.8013 56.8498 40.6113 57.0798 39.4913 56.8098C38.3813 56.5498 37.4312 55.8198 36.8813 54.8098L36.3012 53.7998C35.8912 52.9798 35.0812 52.5898 34.1712 52.7398L33.0012 52.9698C31.8412 53.1698 30.6712 52.8498 29.7712 52.1198C28.8713 51.3898 28.3313 50.3098 28.2812 49.1598L28.2112 47.9998C28.1612 47.0898 27.5712 46.3498 26.7212 46.0998L25.5812 45.8198C24.4012 45.4798 23.4612 44.6798 22.9612 43.6098C22.4712 42.5698 22.4612 41.3798 22.9112 40.3298L23.3412 39.2498C23.6812 38.4698 23.4513 37.5098 22.7812 36.8998L21.9012 36.0898C21.0412 35.3698 20.5312 34.2598 20.5312 33.0698C20.5312 31.8798 21.0412 30.7698 21.9312 30.0198L22.7812 29.2398C23.4513 28.6298 23.6812 27.6698 23.3512 26.9198L22.8912 25.7898C22.4412 24.7698 22.4613 23.5698 22.9513 22.5298C23.4513 21.4698 24.3913 20.6598 25.5312 20.3298L26.7512 20.0298C27.5712 19.7898 28.1512 19.0498 28.2013 18.1498L28.2712 16.9698C28.3612 15.7798 28.9412 14.6998 29.8412 13.9898C30.7412 13.2798 31.8812 12.9898 33.0312 13.1698L34.2413 13.3998C35.1313 13.5498 35.9712 13.1498 36.4212 12.3498L37.0112 11.3098C37.5712 10.2798 38.5713 9.53981 39.7413 9.27981C40.8813 9.02981 42.0613 9.28981 42.9713 9.96981L43.9412 10.7098C44.6012 11.1798 45.6012 11.1798 46.2812 10.6898L47.2712 9.99981C48.2113 9.33981 49.4012 9.10981 50.5212 9.37981C51.6313 9.63981 52.5913 10.3698 53.1413 11.3798L53.7213 12.3898C54.1313 13.2098 54.9313 13.5998 55.8512 13.4498L56.9212 13.2398C58.0912 13.0398 59.2612 13.3598 60.1712 14.0898C61.0713 14.8198 61.6113 15.8998 61.6513 17.0498L61.7213 18.2098C61.7713 19.1098 62.3613 19.8598 63.2113 20.1098L64.3512 20.3898C65.5312 20.7298 66.4713 21.5298 66.9713 22.5998C67.4613 23.6398 67.4712 24.8298 67.0212 25.8898L66.5912 26.9698C66.2512 27.7498 66.4812 28.6998 67.1312 29.3098L68.0713 30.0998C68.9613 30.8498 69.4713 31.9598 69.4713 33.1498C69.4713 34.3398 68.9613 35.4498 68.0612 36.1998L67.2113 36.9798C66.5413 37.5898 66.3112 38.5498 66.6413 39.2998L67.0912 40.4298C67.5412 41.4498 67.5213 42.6498 67.0312 43.6898C66.5312 44.7498 65.5912 45.5598 64.4512 45.8898L63.2312 46.1898C62.4112 46.4298 61.8312 47.1698 61.7812 48.0698L61.7113 49.2598C61.6213 50.4498 61.0413 51.5298 60.1413 52.2398C59.2313 52.9498 58.1012 53.2398 56.9512 53.0598L55.7412 52.8298C54.8412 52.6798 54.0112 53.0698 53.5612 53.8798L52.9713 54.9198C52.4113 55.9498 51.4113 56.6898 50.2413 56.9498C49.9613 57.0098 49.6712 57.0398 49.3912 57.0398ZM44.8912 53.1598C45.7212 53.1598 46.5513 53.4098 47.2413 53.8998L48.2312 54.6598C48.6812 54.9998 49.2513 55.1198 49.8313 54.9898C50.4313 54.8598 50.9413 54.4798 51.2413 53.9398L51.8412 52.8898C52.7012 51.3698 54.3813 50.5698 56.1113 50.8498L57.3112 51.0698C57.8812 51.1498 58.4613 51.0098 58.9212 50.6498C59.4012 50.2798 59.6812 49.7298 59.7312 49.0998L59.8012 47.9398C59.8912 46.2198 61.0713 44.7298 62.7213 44.2498L63.9412 43.9398C64.4912 43.7798 64.9813 43.3698 65.2313 42.8198C65.4813 42.2998 65.4813 41.7098 65.2513 41.1798L64.8013 40.0498C64.1413 38.5298 64.5613 36.6898 65.8613 35.4798L66.7412 34.6698C67.2113 34.2698 67.4713 33.7198 67.4713 33.1198C67.4713 32.5298 67.2212 31.9698 66.7812 31.5998L65.7913 30.7598C64.4913 29.5598 64.0713 27.7098 64.7412 26.1598L65.1712 25.0898C65.4113 24.5298 65.4013 23.9498 65.1613 23.4198C64.9113 22.8798 64.4213 22.4598 63.8313 22.2898L62.6912 22.0098C61.0012 21.5098 59.8213 20.0298 59.7213 18.2998L59.6513 17.1298C59.6313 16.5198 59.3613 15.9898 58.9013 15.6198C58.4413 15.2498 57.8512 15.0898 57.2812 15.1798L56.2113 15.3898C54.3913 15.6898 52.7412 14.8798 51.9513 13.3098L51.3912 12.3298C51.1012 11.7898 50.6313 11.4398 50.0613 11.2998C49.5013 11.1698 48.8912 11.2798 48.4112 11.6198L47.4513 12.2898C46.0812 13.2698 44.1512 13.2698 42.7612 12.2798L41.7712 11.5198C41.3212 11.1798 40.7512 11.0598 40.1712 11.1898C39.5712 11.3198 39.0612 11.6998 38.7612 12.2398L38.1612 13.2898C37.3012 14.8098 35.6312 15.6198 33.8912 15.3298L32.6912 15.1098C32.1212 15.0198 31.5412 15.1698 31.0812 15.5298C30.6012 15.8998 30.3212 16.4498 30.2712 17.0798L30.2013 18.2398C30.1012 19.9598 28.9312 21.4498 27.2712 21.9398L26.0512 22.2498C25.5012 22.4098 25.0112 22.8198 24.7612 23.3698C24.5112 23.8898 24.5112 24.4798 24.7412 25.0098L25.1912 26.1398C25.8512 27.6598 25.4312 29.5098 24.1312 30.7098L23.2412 31.5198C22.7712 31.9198 22.5212 32.4698 22.5212 33.0698C22.5212 33.6598 22.7712 34.2198 23.2112 34.5898L24.1312 35.4298C25.4412 36.6298 25.8612 38.4798 25.1812 40.0298L24.7512 41.1098C24.5112 41.6698 24.5212 42.2498 24.7612 42.7698C25.0112 43.3098 25.5012 43.7298 26.0912 43.8998L27.2312 44.1798C28.9212 44.6798 30.1012 46.1698 30.1912 47.8898L30.2612 49.0598C30.2812 49.6698 30.5512 50.1998 31.0112 50.5698C31.4712 50.9398 32.0613 51.0998 32.6313 51.0098L33.7913 50.7898C35.6012 50.4898 37.2512 51.3098 38.0413 52.8698L38.6012 53.8498C38.8912 54.3898 39.3612 54.7398 39.9312 54.8798C40.5012 55.0098 41.1013 54.8998 41.5813 54.5598L42.5413 53.8898C43.2413 53.3998 44.0612 53.1598 44.8912 53.1598ZM44.9612 49.0098C36.2112 49.0098 29.0912 41.8898 29.0912 33.1398C29.0912 24.3898 36.2112 17.2698 44.9612 17.2698C53.7113 17.2698 60.8412 24.3898 60.8412 33.1398C60.8412 41.8898 53.7212 49.0098 44.9612 49.0098ZM44.9612 19.2598C37.3112 19.2598 31.0912 25.4798 31.0912 33.1298C31.0912 40.7798 37.3112 46.9998 44.9612 46.9998C52.6112 46.9998 58.8412 40.7798 58.8412 33.1298C58.8412 25.4798 52.6112 19.2598 44.9612 19.2598ZM48.6412 40.1798C48.2512 40.1798 47.9513 40.0298 47.7512 39.9298L44.8912 38.1598L42.0912 39.9298C41.8912 40.0298 41.5812 40.1798 41.2013 40.1798C40.6413 40.1798 40.1412 39.9398 39.8012 39.5098C39.4612 39.0698 39.3413 38.4898 39.4913 37.9098L40.2312 34.7798L37.7013 32.7498C37.1213 32.3098 36.8813 31.5398 37.1313 30.7998C37.3713 30.0698 38.0312 29.5698 38.7712 29.5698L42.0512 29.3198L43.2913 26.2798C43.5713 25.5798 44.2113 25.1398 44.9513 25.1398C45.7013 25.1398 46.3312 25.5798 46.6212 26.2798L47.8612 29.3098L51.0712 29.5598C51.0712 29.5598 51.0713 29.5598 51.0813 29.5598C51.7613 29.5598 52.4312 30.0198 52.6912 30.7198C52.9512 31.4198 52.7512 32.1998 52.1712 32.7098L52.1412 32.7398L49.6112 34.7798L50.3512 37.9198C50.4912 38.4198 50.3812 38.9898 50.0312 39.4598C49.6912 39.9098 49.1712 40.1798 48.6412 40.1798ZM48.4112 38.3998C48.4112 38.4098 48.4112 38.4198 48.4112 38.4198V38.3998ZM44.8813 35.7898L48.3012 37.9198L47.3813 34.0098L50.4713 31.5198L46.4812 31.2198L44.9612 27.4998L43.4412 31.2198L39.3813 31.5198L42.4713 34.0098L41.5512 37.9098L44.8813 35.7898ZM50.9812 31.5598C50.9912 31.5598 50.9912 31.5598 51.0012 31.5598H50.9812ZM38.8612 31.5598H38.8512H38.8612ZM38.9412 31.1598L38.9513 31.1698C38.9412 31.1698 38.9412 31.1598 38.9412 31.1598Z" fill="#232323"/>
</svg>
