<svg width="90" height="90" viewBox="0 0 90 90" fill="none" xmlns="http://www.w3.org/2000/svg">
<path d="M35.5477 42.85L34.7877 54.24C34.7677 54.54 34.8677 54.84 35.0577 55.07C35.2577 55.3 35.5377 55.44 35.8377 55.46H35.9177C36.5177 55.46 37.0077 55 37.0477 54.4L37.8577 43.01C37.8977 42.38 37.4277 41.83 36.7977 41.79C36.1677 41.75 35.6177 42.22 35.5777 42.85H35.5477Z" fill="#232323"/>
<path d="M57.6989 42.7301C57.6989 42.7801 57.6989 42.8201 57.6989 42.8701L59.0989 54.4701C59.1689 55.0401 59.6489 55.4701 60.2189 55.4701H60.3589C60.9789 55.3901 61.4289 54.8301 61.3589 54.2101L59.9789 42.6601C60.0389 40.2301 59.2189 37.8601 57.6589 36.0001C56.0989 34.1401 53.9189 32.9001 51.5089 32.5301C49.3289 32.2401 47.1389 32.0801 44.9489 32.0601C42.6889 32.1001 40.4389 32.2501 38.1989 32.5201C33.2989 33.1901 29.7389 37.4501 29.7189 42.6701L28.4289 54.2101C28.3589 54.8401 28.8189 55.4101 29.4389 55.4701C30.0689 55.5401 30.6389 55.0901 30.6989 54.4601L31.9689 42.8501V42.7301C31.9689 38.5701 34.6389 35.3001 38.4889 34.7801C40.6289 34.5201 42.7789 34.3701 44.9289 34.3301C47.0089 34.3601 49.0889 34.5101 51.1489 34.7701C53.0289 35.0701 54.7289 36.0401 55.9389 37.5001C57.1389 38.9801 57.7689 40.8301 57.6989 42.7301Z" fill="#232323"/>
<path d="M52.9178 41.79C52.2978 41.84 51.8178 42.38 51.8578 43.01L52.6678 54.4C52.7078 55 53.2078 55.46 53.7978 55.46H53.8778C54.5078 55.42 54.9778 54.87 54.9378 54.24L54.1278 42.85C54.0878 42.22 53.5478 41.75 52.9178 41.79Z" fill="#232323"/>
<path d="M52.1604 68.5002L57.6404 63.1802C57.9504 62.8802 58.0604 62.4202 57.9304 62.0102C57.7904 61.6002 57.4404 61.3002 57.0004 61.2402L49.4004 60.1402L46.0104 53.3002C45.8204 52.9102 45.4204 52.6602 44.9904 52.6602C44.5604 52.6602 44.1604 52.9102 43.9704 53.3002L40.5804 60.1402L32.9804 61.2402C32.5704 61.3202 32.2304 61.6202 32.1104 62.0302C31.9904 62.4302 32.1004 62.8702 32.3904 63.1702L37.8704 68.4902L36.5804 76.0302C36.5104 76.4602 36.6804 76.8902 37.0304 77.1502C37.3804 77.4002 37.8504 77.4402 38.2304 77.2302L45.0004 73.6702L51.7804 77.2302C51.9404 77.3202 52.1304 77.3602 52.3104 77.3602C52.5504 77.3602 52.7804 77.2902 52.9804 77.1502C53.3304 76.8902 53.5004 76.4602 53.4404 76.0302L52.1604 68.5002ZM49.8104 68.2902L50.8104 74.1502L45.5504 71.3902C45.2204 71.2202 44.8204 71.2202 44.4904 71.3902L39.2304 74.1502L40.2304 68.2902C40.2904 67.9202 40.1704 67.5402 39.9004 67.2802L35.6504 63.1302L41.5104 62.2802C41.8804 62.2302 42.2004 61.9902 42.3704 61.6602L45.0004 56.3402L47.6404 61.6602C47.8004 61.9902 48.1204 62.2302 48.4904 62.2802L54.3804 63.1302L50.1204 67.2802C49.8504 67.5402 49.7204 67.9202 49.7704 68.2902H49.8104Z" fill="#232323"/>
<path d="M76.2875 67.0298L70.7475 66.1998L68.2675 61.1898C68.0775 60.7998 67.6775 60.5498 67.2475 60.5498C66.8175 60.5498 66.4175 60.7998 66.2275 61.1898L63.7475 66.1998L58.2275 67.0298C57.7975 67.0898 57.4375 67.3898 57.3075 67.8098C57.1775 68.2198 57.2875 68.6798 57.5975 68.9798L61.5975 72.8798L60.6575 78.3898C60.5975 78.7198 60.6875 79.0598 60.9075 79.3198C61.1275 79.5798 61.4475 79.7198 61.7775 79.7198C61.9675 79.7198 62.1475 79.6798 62.3075 79.5898L67.2575 76.9798L72.2075 79.5898C72.5875 79.7898 73.0575 79.7598 73.4075 79.5098C73.7575 79.2498 73.9375 78.8198 73.8575 78.3898L72.9175 72.8798L76.9175 68.9798C77.2275 68.6798 77.3375 68.2198 77.2075 67.8098C77.0775 67.3998 76.7175 67.0998 76.2875 67.0298ZM70.8975 71.6698C70.6275 71.9298 70.5075 72.3098 70.5675 72.6798L71.2175 76.4798L67.7775 74.6698C67.6075 74.5898 67.4275 74.5398 67.2475 74.5398C67.0675 74.5398 66.8875 74.5898 66.7275 74.6698L63.2875 76.4798L63.9375 72.6798C64.0075 72.3098 63.8875 71.9298 63.6075 71.6698L60.8275 68.9598L64.6675 68.4098C65.0375 68.3498 65.3575 68.1198 65.5275 67.7898L67.2475 64.2998L68.9675 67.7898C69.1375 68.1198 69.4575 68.3598 69.8275 68.4098L73.6675 68.9598L70.8975 71.6698Z" fill="#232323"/>
<path d="M31.7589 67.0298L26.2189 66.1998L23.7389 61.1898C23.5489 60.7998 23.1489 60.5498 22.7089 60.5498C22.2789 60.5498 21.8789 60.7998 21.6889 61.1898L19.2089 66.1998L13.6689 67.0298C13.2389 67.0898 12.8789 67.3898 12.7489 67.8098C12.6189 68.2198 12.7289 68.6798 13.0389 68.9798L17.0389 72.8798L16.0989 78.3898C16.0189 78.8198 16.1989 79.2498 16.5489 79.5098C16.8989 79.7698 17.3689 79.7998 17.7489 79.5898L22.6989 76.9798L27.6489 79.5898C27.8089 79.6798 27.9989 79.7198 28.1789 79.7198C28.4189 79.7198 28.6489 79.6498 28.8489 79.5098C29.1989 79.2498 29.3689 78.8198 29.3089 78.3898L28.3589 72.8798L32.3889 68.9798C32.6989 68.6798 32.8089 68.2198 32.6789 67.8098C32.5489 67.3998 32.1889 67.0998 31.7589 67.0298ZM26.3289 71.6698C26.0589 71.9298 25.9389 72.3098 25.9989 72.6798L26.6589 76.4798L23.2889 74.6998C22.9589 74.5298 22.5589 74.5298 22.2289 74.6998L18.7389 76.5098L19.3889 72.7098C19.4489 72.3398 19.3289 71.9598 19.0589 71.6998L16.2989 68.9598L20.1389 68.4098C20.5089 68.3498 20.8389 68.1198 21.0089 67.7898L22.7289 64.2998L24.4489 67.7898C24.6189 68.1198 24.9289 68.3598 25.2989 68.4098L29.1489 68.9598L26.3289 71.6698Z" fill="#232323"/>
<path d="M46.0975 14.52H45.6675V14.1C45.6675 13.63 45.2875 13.25 44.8175 13.25C44.3475 13.25 43.9675 13.63 43.9675 14.1V14.53H43.5375C43.0675 14.53 42.6875 14.91 42.6875 15.38C42.6875 15.85 43.0675 16.23 43.5375 16.23H43.9675V16.66C43.9675 17.13 44.3475 17.51 44.8175 17.51C45.2875 17.51 45.6675 17.13 45.6675 16.66V16.23H46.0975C46.5675 16.23 46.9475 15.85 46.9475 15.38C46.9475 14.91 46.5675 14.52 46.0975 14.52Z" fill="#232323"/>
<path d="M40.76 32.09C39.78 32.37 38.84 32.75 37.95 33.21H51.77C50.85 32.74 49.88 32.36 48.88 32.09C51.34 30.64 52.87 28.01 52.9 25.15V14.52C52.86 13.41 52.4 12.35 51.61 11.56C50.82 10.77 49.76 10.31 48.65 10.27H41C39.89 10.31 38.83 10.77 38.04 11.56C37.25 12.35 36.79 13.41 36.75 14.52V25.15C36.78 28.01 38.3 30.64 40.76 32.09ZM39.23 12.76C39.7 12.29 40.33 12.01 40.99 11.97H48.64C49.3 12.01 49.93 12.29 50.4 12.76C50.87 13.23 51.15 13.86 51.19 14.52V18.77H38.44V14.52C38.48 13.86 38.76 13.23 39.23 12.76ZM38.44 20.48H51.2V25.16C51.16 26.84 50.47 28.44 49.29 29.62C48.1 30.81 46.5 31.49 44.83 31.53C43.15 31.49 41.55 30.8 40.37 29.62C39.18 28.43 38.5 26.83 38.46 25.16V20.48H38.44Z" fill="#232323"/>
</svg>
