<svg width="98" height="45" viewBox="0 0 98 45" fill="none" xmlns="http://www.w3.org/2000/svg">
<g clip-path="url(#clip0_18462_18945)">
<mask id="mask0_18462_18945" style="mask-type:luminance" maskUnits="userSpaceOnUse" x="0" y="13" width="98" height="19">
<path d="M0.540039 13.125H97.155V31.875H0.555039L0.540039 13.125Z" fill="white"/>
</mask>
<g mask="url(#mask0_18462_18945)">
<path d="M44.5802 25.41C49.0952 25.41 51.4202 24 51.4202 20.955C51.4202 18.33 49.5002 16.575 45.3602 16.575C40.3202 16.575 38.3102 18.825 37.8602 22.845C37.1102 22.785 36.3152 22.77 35.2202 22.77V22.11C35.2202 18.03 33.5402 16.56 29.0402 16.56C26.8502 16.56 24.9002 16.89 23.7302 17.37L23.8952 20.625C25.1389 19.9587 26.5199 19.5891 27.9302 19.545C29.9852 19.545 30.6152 20.4 30.6152 22.425V22.725H29.8952C24.7802 22.725 22.3952 24.285 22.3952 27.15C22.3952 30.12 23.8802 31.86 28.0802 31.86C30.2852 31.86 32.4752 31.56 35.2952 31.56C35.0852 30.36 35.0852 28.65 35.0852 27.48C35.0852 26.865 35.1152 26.13 35.1452 25.29C36.3452 25.29 37.2452 25.335 37.8152 25.35C38.2652 30.12 40.7252 31.875 45.8702 31.875C47.5159 31.917 49.1548 31.6473 50.7002 31.08L50.5202 27.825C49.5152 28.41 48.1202 28.875 46.6052 28.875C44.0702 28.875 42.7052 27.555 42.7052 25.485V25.38L44.5802 25.41ZM29.1752 29.01C27.6152 29.01 26.9402 28.5 26.9402 27.195C26.9402 25.935 27.7952 25.215 29.9402 25.215H30.5402C30.5402 26.445 30.4952 27.87 30.5702 28.86C30.1952 28.965 29.6552 29.01 29.1752 29.01ZM42.6752 22.905V22.83C42.6752 20.79 43.3352 19.29 45.2102 19.29C46.2602 19.29 46.9502 19.845 46.9502 20.85C46.9502 22.275 46.0052 22.95 44.0252 22.95C43.5602 22.95 43.0502 22.935 42.6752 22.905ZM60.6452 28.605C59.1452 28.605 58.6952 28.005 58.6952 25.83V20.16H61.6802V17.01H58.7402C58.7402 15.9 58.8302 14.25 58.9202 13.125H56.1602C55.8002 15.87 55.0052 17.295 52.5002 17.715C52.4852 18.45 52.5302 19.455 52.5002 20.16H54.1652C54.1352 21.72 54.0902 24.585 54.0902 27.18C54.0902 30.495 55.8152 31.86 59.0402 31.86C60.6152 31.86 61.7702 31.62 62.1602 31.515L61.9652 28.275C61.6652 28.47 61.1252 28.62 60.6452 28.62V28.605ZM92.0852 22.11C92.0852 18.03 90.3902 16.56 85.8902 16.56C83.7002 16.56 81.7652 16.89 80.5802 17.37L80.7602 20.625C81.9994 19.9609 83.375 19.5914 84.7802 19.545C86.8352 19.545 87.4652 20.4 87.4652 22.425V22.725H86.7602C81.6302 22.725 79.2602 24.285 79.2602 27.15C79.2602 30.12 80.7302 31.86 84.9452 31.86C87.1502 31.86 89.3402 31.56 92.1452 31.56C91.9502 30.36 91.9502 28.65 91.9502 27.48C91.9502 26.16 92.0852 24.285 92.0852 22.11ZM86.0252 29.01C84.4652 29.01 83.7902 28.5 83.7902 27.195C83.7902 25.935 84.6452 25.215 86.7902 25.215H87.3902C87.3902 26.445 87.3452 27.87 87.4202 28.86C87.0452 28.965 86.5052 29.01 86.0252 29.01ZM77.3852 24.765L77.4002 21.915C77.4002 18.225 75.7952 16.575 71.2202 16.575C68.6702 16.575 66.8402 17.025 63.9752 17.025C64.1252 19.605 64.1402 22.8 64.1252 24.78C64.1402 26.79 64.0652 30.39 63.9752 31.545H68.8802C68.7602 30.39 68.6702 27.045 68.6852 24.78C68.6852 23.49 68.6852 21.93 68.7452 19.83C69.2402 19.68 69.8552 19.545 70.5452 19.545C72.2552 19.545 72.7952 20.355 72.7952 22.575L72.8252 24.78C72.8252 26.79 72.7652 30.39 72.6752 31.56H77.5802C77.4602 30.375 77.3702 27.03 77.3852 24.765ZM16.6052 15.915C16.3891 15.6973 16.132 15.5245 15.8488 15.4066C15.5657 15.2887 15.2619 15.228 14.9552 15.228C14.6484 15.228 14.3447 15.2887 14.0615 15.4066C13.7784 15.5245 13.5213 15.6973 13.3052 15.915L10.5752 18.645L7.86019 15.915C7.64358 15.6927 7.38466 15.5161 7.09871 15.3955C6.81275 15.2749 6.50554 15.2128 6.1952 15.2128C5.88485 15.2128 5.57764 15.2749 5.29168 15.3955C5.00573 15.5161 4.74681 15.6927 4.5302 15.915L1.2302 19.215C0.315195 20.13 0.315195 21.615 1.2302 22.53L10.5752 31.875L19.9202 22.53C20.8202 21.63 20.8202 20.13 19.9202 19.23L16.6202 15.915H16.6052ZM95.9702 17.415C95.9702 16.905 95.6702 16.71 95.0702 16.71H94.1702V19.14H94.5602V18.09H94.9352L95.5652 19.14H96.0152L95.3402 18.075C95.7002 18.03 95.9702 17.85 95.9702 17.4V17.415ZM94.5602 17.76V17.04H95.0402C95.2802 17.04 95.5802 17.085 95.5802 17.37C95.5802 17.73 95.3102 17.76 95.0102 17.76H94.5602ZM94.9952 15.675C93.8252 15.675 92.8352 16.575 92.8352 17.88C92.8352 19.14 93.7352 20.085 94.9952 20.085C96.1502 20.085 97.1552 19.215 97.1552 17.88C97.1552 16.56 96.1502 15.675 94.9952 15.675ZM94.9952 19.71C93.9452 19.71 93.3002 18.885 93.3002 17.88C93.3002 16.815 94.0502 16.08 94.9952 16.08C95.9402 16.08 96.6752 16.83 96.6752 17.88C96.6752 18.96 95.9252 19.71 94.9952 19.71Z" fill="#232323"/>
</g>
</g>
<defs>
<clipPath id="clip0_18462_18945">
<rect width="97.5" height="45" fill="white"/>
</clipPath>
</defs>
</svg>
