<?xml version="1.0" encoding="UTF-8"?>
<svg xmlns="http://www.w3.org/2000/svg" width="90" height="90" viewBox="0 0 90 90" fill="none">
  <path d="M43.8804 39.3761C42.0333 39.3761 40.5186 40.9039 40.5186 42.7511C40.5186 44.5983 42.0333 46.1261 43.8804 46.1261H44.9989C45.6232 46.1261 46.1109 46.6127 46.1109 47.2511C46.1109 47.8894 45.6232 48.3761 44.9989 48.3761H41.6435V48.3756C41.3426 48.372 41.0528 48.4891 40.8389 48.7C40.6249 48.9114 40.5044 49.1997 40.5044 49.5006C40.5044 49.8014 40.6249 50.0897 40.8389 50.3011C41.0528 50.5125 41.3426 50.6296 41.6435 50.6255H44.9989C46.8461 50.6255 48.3608 49.0977 48.3608 47.2506C48.3608 45.4034 46.8461 43.8756 44.9989 43.8756H43.8804C43.2562 43.8756 42.7685 43.3889 42.7685 42.7506C42.7685 42.1122 43.2562 41.6256 43.8804 41.6256H47.2359L47.2364 41.6261C47.5372 41.6296 47.827 41.5131 48.041 41.3016C48.2549 41.0902 48.3755 40.8019 48.3755 40.5011C48.3755 40.2002 48.2549 39.912 48.041 39.7005C47.827 39.4891 47.5372 39.3721 47.2364 39.3761H43.8804Z" fill="#FCFCFF"></path>
  <path d="M44.9845 37.1261C44.3643 37.1356 43.8685 37.6459 43.8771 38.2667V40.4845C43.8726 40.7859 43.9891 41.0762 44.2005 41.2911C44.412 41.5056 44.7007 41.6266 45.0021 41.6266C45.3034 41.6266 45.5922 41.5056 45.8037 41.2911C46.0151 41.0762 46.1316 40.7859 46.1271 40.4845V38.2667C46.1311 37.9628 46.0121 37.6695 45.7966 37.4551C45.5817 37.2401 45.2884 37.1216 44.9845 37.1261V37.1261Z" fill="#FCFCFF"></path>
  <path d="M43.8585 48.3761C43.2383 48.3857 42.7425 48.8959 42.7511 49.5162V51.7351C42.7476 52.0354 42.8646 52.3247 43.076 52.5387C43.2875 52.7521 43.5757 52.8726 43.8761 52.8726C44.1764 52.8726 44.4647 52.7521 44.6761 52.5387C44.8871 52.3247 45.0046 52.0354 45.0011 51.7351V49.5162C45.0051 49.2123 44.8861 48.9195 44.6711 48.7046C44.4557 48.4896 44.1624 48.3711 43.8585 48.3761V48.3761Z" fill="#FCFCFF"></path>
  <path d="M45.0014 32.6274C38.1806 32.6274 32.627 38.1811 32.627 45.0019C32.627 51.8233 38.1806 57.3769 45.0014 57.3769C51.8223 57.3769 57.3759 51.8233 57.3759 45.0019C57.3759 38.1806 51.8223 32.6274 45.0014 32.6274ZM45.0014 34.8774C50.6064 34.8774 55.1259 39.397 55.1259 45.0024C55.1259 50.6074 50.6064 55.1274 45.0014 55.1274C39.3965 55.1274 34.877 50.6079 34.877 45.0024C34.877 39.3975 39.3965 34.8774 45.0014 34.8774Z" fill="#FCFCFF"></path>
  <path d="M46.0918 9.00094C42.2286 9.00094 37.1089 10.2435 33.2468 14.1664C28.5951 18.8909 23.9228 23.6094 19.2826 28.3491C18.5735 29.0739 18.0331 30.1521 18.002 31.4428V31.4584V31.4956C18.002 33.963 20.0299 36.0001 22.4985 36.0001C24.7519 36.0001 23.4025 35.9845 24.7345 36.0001C26.0824 36.0171 27.111 35.2568 27.8096 34.5255C29.9547 32.281 33.404 28.9316 33.404 28.9316C33.632 28.7272 33.7671 28.4389 33.7782 28.1331C33.7887 27.8272 33.6747 27.5299 33.4618 27.3104C33.2489 27.0904 32.9555 26.9669 32.6497 26.9679C32.3438 26.9694 32.0515 27.0949 31.8401 27.3164C31.8401 27.3164 28.3887 30.6648 26.184 32.972C25.6933 33.4853 25.2604 33.756 24.7607 33.75C23.4288 33.7344 24.7416 33.75 22.4981 33.75C21.2727 33.75 20.2511 32.7244 20.2511 31.4955C20.2671 30.8245 20.5795 30.2419 20.8904 29.9245C25.524 25.191 30.1947 20.4734 34.8494 15.7456C38.1757 12.3676 42.7173 11.2501 46.0914 11.2501H70.8594C71.1597 11.2536 71.4495 11.1371 71.6635 10.9257C71.8774 10.7142 71.998 10.4259 71.998 10.1251C71.998 9.82426 71.8774 9.53599 71.6635 9.32454C71.4495 9.1131 71.1597 8.99608 70.8594 9.0001L46.0918 9.00094Z" fill="#FCFCFF"></path>
  <path d="M40.4975 18.0011C38.027 18.0011 36.002 20.0295 36.002 22.5011C36.002 24.9726 38.0264 27.0011 40.4975 27.0011V27.0006C40.7983 27.0046 41.0881 26.8876 41.302 26.6761C41.516 26.4652 41.6365 26.1764 41.6365 25.8756C41.6365 25.5747 41.516 25.2865 41.302 25.0755C41.0881 24.8641 40.7983 24.7471 40.4975 24.7506C39.2439 24.7506 38.252 23.7572 38.252 22.5006C38.252 21.244 39.2439 20.2506 40.4975 20.2506H52.8604V20.2511C53.1612 20.2546 53.451 20.1381 53.6649 19.9266C53.8794 19.7152 53.9999 19.4269 53.9999 19.1261C53.9999 18.8252 53.8794 18.537 53.6649 18.3255C53.451 18.1141 53.1612 17.9971 52.8604 18.0011H40.4975Z" fill="#FCFCFF"></path>
  <path d="M70.8635 22.501C67.8642 22.49 65.9868 24.0299 64.2721 25.0851C62.4867 26.184 61.0663 27.001 58.8495 27.001C56.7828 27.001 55.2887 26.664 53.684 26.1729C50.3859 25.1629 46.6381 24.7491 40.517 24.7491L40.5175 24.7486C40.2167 24.745 39.9269 24.8616 39.7129 25.073C39.499 25.2844 39.3784 25.5727 39.3784 25.8736C39.3784 26.1744 39.499 26.4627 39.7129 26.6741C39.9269 26.8856 40.2167 27.0026 40.5175 26.9986C46.5377 26.9986 50.0167 27.4044 53.0256 28.3254C54.7371 28.8497 56.5317 29.2505 58.85 29.2505C61.6475 29.2505 63.6262 28.125 65.4504 27.0026C67.3447 25.8369 68.6144 24.7415 70.8554 24.7505L70.8549 24.751C71.1552 24.756 71.4455 24.64 71.6605 24.4301C71.8749 24.2197 71.997 23.9324 71.9985 23.6316C72 23.3307 71.8809 23.0424 71.668 22.83C71.4555 22.6175 71.1668 22.499 70.8659 22.501L70.8635 22.501Z" fill="#FCFCFF"></path>
  <path d="M43.9111 81.0008C47.7748 81.0008 52.894 79.7583 56.7567 75.8354C61.4084 71.1109 66.0807 66.3925 70.7208 61.6527C71.43 60.928 71.9704 59.8497 72.0015 58.559L72.001 58.5585V58.5429V58.5058C72.001 56.0383 69.973 54.0013 67.5045 54.0013C65.251 54.0013 66.6005 54.0168 65.2685 54.0013C63.9205 53.9842 62.892 54.7446 62.1933 55.4758C60.0482 57.7208 56.5989 61.0697 56.5989 61.0697V61.0702C56.3714 61.2741 56.2363 61.5624 56.2253 61.8683C56.2147 62.1741 56.3287 62.4709 56.5417 62.6909C56.7546 62.9109 57.0474 63.0344 57.3533 63.0334C57.6596 63.0319 57.9514 62.9064 58.1629 62.6849C58.1629 62.6849 61.6142 59.3365 63.819 57.0293C64.3097 56.516 64.7426 56.2453 65.2423 56.2513C66.5741 56.2669 65.2614 56.2513 67.5049 56.2513C68.7303 56.2513 69.7519 57.2769 69.7519 58.5058C69.7363 59.1768 69.4234 59.7594 69.1126 60.0769C64.4795 64.8103 59.8082 69.5279 55.1536 74.2557C51.8273 77.6336 47.2856 78.7512 43.9115 78.7512H19.1436L19.1441 78.7517C18.8427 78.7467 18.5519 78.8632 18.337 79.0746C18.122 79.2861 18.001 79.5748 18.001 79.8767C18.001 80.178 18.122 80.4668 18.337 80.6783C18.5519 80.8897 18.8427 81.0062 19.1441 81.0012L43.9111 81.0008Z" fill="#FCFCFF"></path>
  <path d="M49.5054 72.0011C51.9759 72.0011 54.0009 69.9726 54.0009 67.5011C54.0009 65.0296 51.9759 63.0011 49.5054 63.0011C49.204 62.9966 48.9132 63.1126 48.6983 63.324C48.4834 63.5355 48.3623 63.8248 48.3623 64.1261C48.3623 64.4275 48.4833 64.7167 48.6983 64.9282C48.9133 65.1396 49.204 65.2561 49.5054 65.2511C50.7589 65.2511 51.7509 66.2445 51.7509 67.5011C51.7509 68.7577 50.759 69.7511 49.5054 69.7511H37.1425C36.8417 69.7471 36.5519 69.8641 36.3379 70.0755C36.124 70.287 36.0034 70.5753 36.0034 70.8761C36.0034 71.177 36.124 71.4652 36.3379 71.6767C36.5519 71.8881 36.8417 72.0046 37.1425 72.0011H49.5054Z" fill="#FCFCFF"></path>
  <path d="M19.1394 67.501C22.1387 67.512 24.0161 65.9722 25.7307 64.917C27.5162 63.8181 28.9365 63.001 31.1533 63.001C33.22 63.001 34.7141 63.338 36.3188 63.8292C39.6169 64.8392 43.3641 65.253 49.4858 65.253H49.4853C49.7872 65.258 50.078 65.1415 50.2924 64.93C50.5074 64.7186 50.6284 64.4298 50.6284 64.128C50.6284 63.8266 50.5074 63.5379 50.2924 63.3264C50.0779 63.115 49.7871 62.9984 49.4853 63.003C43.4651 63.003 39.9861 62.5972 36.9772 61.6756C35.2657 61.1513 33.4711 60.7505 31.1528 60.7505C28.3554 60.7505 26.3767 61.876 24.5525 62.9984C22.6581 64.1641 21.3885 65.2595 19.1475 65.2505L19.1485 65.251C18.8476 65.246 18.5578 65.3615 18.3429 65.5719C18.1279 65.7819 18.0064 66.0696 18.0049 66.37C18.0034 66.6708 18.1219 66.9596 18.3349 67.172C18.5473 67.3845 18.8366 67.503 19.1369 67.501H19.1394Z" fill="#FCFCFF"></path>
</svg>
