<svg width="136" height="24" viewBox="0 0 136 24" fill="none" xmlns="http://www.w3.org/2000/svg">
<path d="M12 17L6 20L7.5 14L3 9L9.5 8.5L12 3L14.5 8.5L21 9L16.5 14L18 20L12 17Z" fill="#FFAF12" stroke="#FFAF12" stroke-width="1.5" stroke-linecap="round" stroke-linejoin="round"/>
<path d="M68 17L62 20L63.5 14L59 9L65.5 8.5L68 3L70.5 8.5L77 9L72.5 14L74 20L68 17Z" fill="#FFAF12" stroke="#FFAF12" stroke-width="1.5" stroke-linecap="round" stroke-linejoin="round"/>
<path d="M40 17L34 20L35.5 14L31 9L37.5 8.5L40 3L42.5 8.5L49 9L44.5 14L46 20L40 17Z" fill="#FFAF12" stroke="#FFAF12" stroke-width="1.5" stroke-linecap="round" stroke-linejoin="round"/>
<path d="M96 17L90 20L91.5 14L87 9L93.5 8.5L96 3L98.5 8.5L105 9L100.5 14L102 20L96 17Z" fill="#FFAF12" stroke="#FFAF12" stroke-width="1.5" stroke-linecap="round" stroke-linejoin="round"/>
<path d="M124 17L118 20L119.5 14L115 9L121.5 8.5L124 3L126.5 8.5L133 9L128.5 14L130 20L124 17Z" fill="#FFAF12" stroke="#FFAF12" stroke-width="1.5" stroke-linecap="round" stroke-linejoin="round"/>
</svg>
