<?xml version="1.0" encoding="UTF-8"?>
<svg xmlns="http://www.w3.org/2000/svg" width="90" height="90" viewBox="0 0 90 90" fill="none">
  <path d="M37.625 15.7505H30.875C30.2537 15.7505 29.75 15.2467 29.75 14.6255C29.75 14.0042 30.2537 13.5005 30.875 13.5005H37.625C38.2463 13.5005 38.75 14.0042 38.75 14.6255C38.75 15.2467 38.2463 15.7505 37.625 15.7505Z" fill="#FCFCFF"></path>
  <path d="M35.9375 27.5635H35.375V27.001C35.375 26.3797 34.8713 25.876 34.25 25.876C33.6288 25.876 33.125 26.3797 33.125 27.001V27.5635H32.5625C31.9413 27.5635 31.4375 28.0672 31.4375 28.6885C31.4375 29.3097 31.9413 29.8135 32.5625 29.8135H33.125V30.376C33.125 30.9972 33.6288 31.501 34.25 31.501C34.8713 31.501 35.375 30.9972 35.375 30.376V29.8135H35.9375C36.5588 29.8135 37.0625 29.3097 37.0625 28.6885C37.0625 28.0672 36.5588 27.5635 35.9375 27.5635Z" fill="#FCFCFF"></path>
  <path d="M53.375 72.0005C52.7538 72.0005 52.25 72.5042 52.25 73.1255V75.6903C52.1862 76.5225 51.8106 77.3 51.1988 77.8676C50.5866 78.4346 49.7825 78.75 48.9483 78.7505H19.5518C18.6774 78.7475 17.8392 78.3989 17.2204 77.7802C16.6016 77.1614 16.2531 76.3232 16.2501 75.4488V70.6896C16.2727 65.7205 18.2746 60.9653 21.8134 57.4763C23.4055 55.9058 25.2742 54.6432 27.3259 53.7522C26.7634 55.2655 26.2963 57.0092 26.0376 58.0162C24.8573 58.201 23.785 58.8087 23.0191 59.7253C22.2537 60.6418 21.8469 61.8055 21.875 62.9998V70.3123C21.875 70.6107 21.9935 70.897 22.2045 71.1079C22.4154 71.3188 22.7017 71.4373 23 71.4373H24.125C24.7463 71.4373 25.25 70.9336 25.25 70.3123C25.25 69.6911 24.7463 69.1873 24.125 69.1873V62.9998C24.0979 62.246 24.3857 61.5147 24.919 60.9814C25.4524 60.448 26.1837 60.1603 26.9375 60.1874C27.6913 60.1603 28.4226 60.448 28.9559 60.9814C29.4893 61.5148 29.7771 62.246 29.75 62.9998V69.1873C29.1287 69.1873 28.625 69.6911 28.625 70.3123C28.625 70.9336 29.1287 71.4373 29.75 71.4373H30.875C31.1733 71.4373 31.4596 71.3188 31.6705 71.1079C31.8814 70.8969 32 70.6107 32 70.3123V62.9998C32.0256 61.8939 31.6785 60.8116 31.0141 59.9267C30.3501 59.0423 29.4074 58.407 28.3382 58.1233C28.7827 56.4358 29.5195 53.9552 30.1553 52.8865C30.1553 52.8529 30.1835 52.8192 30.2005 52.7911C31.6279 52.4486 33.0919 52.2874 34.5594 52.3125C36.4568 52.3481 38.3362 52.6841 40.1281 53.3079C41.2531 55.3837 41.8156 58.3704 42.0179 59.8782C40.7246 60.2664 39.7007 61.2583 39.2718 62.5384C38.8429 63.8186 39.0624 65.2279 39.8604 66.3168C40.6584 67.4061 41.9357 68.0394 43.2857 68.0158C44.6357 67.9922 45.8903 67.3142 46.6501 66.1982C47.4095 65.0818 47.5798 63.666 47.1062 62.4014C46.6326 61.1373 45.5744 60.1815 44.2681 59.839C44.0536 58.0882 43.6769 56.3615 43.1431 54.6805C43.3455 54.7986 43.5479 54.9111 43.7447 55.0351C44.2726 55.3641 44.9682 55.2034 45.2976 54.675C45.6266 54.1467 45.4659 53.4516 44.9375 53.1226C43.2861 52.0936 41.4937 51.3106 39.6163 50.7994C42.8718 48.8818 44.8898 45.4033 44.9375 41.6251V27.562C44.8818 26.0879 44.2716 24.6892 43.2284 23.6461C42.1853 22.603 40.7866 21.9928 39.3125 21.937H29.1875C27.7134 21.9927 26.3147 22.603 25.2716 23.6461C24.2285 24.6892 23.6183 26.0879 23.5625 27.562V41.6251C23.6082 45.4054 25.6262 48.8869 28.8837 50.8049C25.6217 51.738 22.648 53.4793 20.2383 55.8674C18.6191 57.4666 17.2722 59.3188 16.25 61.3517V14.5517C16.253 13.6773 16.6016 12.8391 17.2203 12.2203C17.8391 11.6015 18.6773 11.253 19.5517 11.25H48.9483C49.8227 11.253 50.6609 11.6016 51.2797 12.2203C51.8985 12.8391 52.247 13.6773 52.25 14.5517V32.625C52.25 33.2463 52.7537 33.75 53.375 33.75C53.9962 33.75 54.5 33.2463 54.5 32.625V14.5517C54.4985 13.0802 53.9129 11.6684 52.8723 10.6277C51.8317 9.58706 50.4199 9.00154 48.9483 9H19.5517C18.0802 9.00151 16.6684 9.58711 15.6277 10.6277C14.5871 11.6683 14.0015 13.0801 14 14.5517V75.4483C14.0015 76.9198 14.5871 78.3317 15.6277 79.3723C16.6683 80.413 18.0801 80.9985 19.5517 81H48.9483C50.3615 81.0015 51.7226 80.4641 52.7542 79.4973C53.7853 78.531 54.4101 77.2075 54.5 75.7969V73.125C54.5 72.8267 54.3815 72.5404 54.1705 72.3295C53.9596 72.1185 53.6733 72.0005 53.375 72.0005ZM45.1288 63.8552C45.1288 64.3629 44.9264 64.8491 44.5668 65.2073C44.2072 65.5648 43.7196 65.7647 43.2123 65.7622C42.7051 65.7597 42.2194 65.5548 41.8634 65.1937C41.5073 64.8321 41.3099 64.3439 41.3149 63.8366C41.32 63.3289 41.5269 62.8447 41.8905 62.4901C42.2536 62.136 42.7428 61.9412 43.25 61.9487C43.7507 61.9557 44.2289 62.1601 44.5805 62.5167C44.932 62.8738 45.1288 63.3545 45.1288 63.8552ZM25.8123 27.5633C25.8655 26.6854 26.2382 25.8577 26.8599 25.2359C27.4817 24.6142 28.3093 24.2415 29.1873 24.1883H39.3123C40.1902 24.2415 41.0179 24.6142 41.6397 25.2359C42.2615 25.8577 42.6341 26.6853 42.6874 27.5633V33.1883H25.8124L25.8123 27.5633ZM25.8123 41.6265V35.439H42.6873V41.6265C42.6315 43.8469 41.725 45.9607 40.1545 47.5312C38.584 49.1017 36.4702 50.0083 34.2498 50.064C32.0293 50.0082 29.9155 49.1017 28.345 47.5312C26.7745 45.9607 25.8679 43.8469 25.8123 41.6265Z" fill="#FCFCFF"></path>
  <path d="M83.9251 35.972C83.8894 35.3774 83.3962 34.9138 82.8001 34.9148C82.7328 34.9148 75.6618 34.8641 71.9328 33.4186C69.036 32.2936 67.0391 29.4811 67.022 29.4811C66.8116 29.1793 66.4671 29 66.0994 29C65.7318 29 65.3878 29.1793 65.1773 29.4811C65.1773 29.4811 63.1805 32.2936 60.2665 33.4186C56.5369 34.864 49.4665 34.9148 49.3993 34.9148C48.8031 34.9138 48.3099 35.3774 48.2743 35.972C48.1337 38.2783 46.9916 58.6585 50.7101 63.8952C53.0444 67.1914 56.8303 69.6437 59.8734 71.6124C62.264 73.1592 64.9696 74.9141 64.9696 76.0336C64.9696 76.6549 65.4728 77.1591 66.0941 77.1591C66.7153 77.1591 67.2191 76.6554 67.2191 76.0341C67.2191 74.9091 69.9246 73.1599 72.3152 71.6129C75.3583 69.6442 79.1441 67.1917 81.4839 63.8957C85.208 58.6584 84.0658 38.2786 83.9251 35.972ZM79.6556 62.5953C77.5689 65.5374 74.1376 67.7592 71.1056 69.722C69.0243 71.072 67.2073 72.2478 66.1048 73.4853C64.9798 72.2478 63.1853 71.072 61.104 69.722C58.0781 67.7703 54.6412 65.5203 52.5545 62.5953C49.9389 58.911 50.1303 43.8535 50.4732 37.142C52.6895 37.0687 57.853 36.7709 61.0819 35.5162C63.011 34.7081 64.7291 33.4691 66.1052 31.8936C67.4818 33.4681 69.1999 34.7071 71.128 35.5162C74.3568 36.7708 79.5202 37.0686 81.7366 37.142C82.0802 43.8528 82.2713 58.9053 79.6556 62.5953Z" fill="#FCFCFF"></path>
  <path d="M77.9438 43.4765C77.3001 42.8412 76.1795 42.8412 75.5358 43.4765L64.8188 54.0525L60.9087 50.1938C60.265 49.5586 59.1444 49.5586 58.5007 50.1938C58.1788 50.5115 58 50.935 58 51.382C58 51.8291 58.1788 52.2526 58.5007 52.5702L63.6148 57.6171C63.9367 57.9347 64.3658 58.1111 64.8188 58.1111C65.2718 58.1111 65.701 57.9347 66.0228 57.6171L77.9438 45.8529C78.2657 45.5352 78.4445 45.1117 78.4445 44.6647C78.4445 44.2176 78.2657 43.7941 77.9438 43.4765Z" fill="white"></path>
</svg>
