<svg width="153" height="48" viewBox="0 0 153 48" fill="none" xmlns="http://www.w3.org/2000/svg">
<path d="M105.85 33.3898C105.85 34.0855 105.342 34.6153 104.644 34.6153C103.945 34.6153 103.43 34.0644 103.43 33.3898C103.43 32.7151 103.961 32.1484 104.644 32.1484C105.326 32.1484 105.85 32.7098 105.85 33.3898ZM103.662 33.3898C103.662 33.9406 104.086 34.4018 104.644 34.4018C105.202 34.4018 105.625 33.9643 105.625 33.3898C105.625 32.8152 105.197 32.3672 104.644 32.3672C104.091 32.3672 103.662 32.8284 103.662 33.3898ZM104.176 32.7203H104.673C104.866 32.7203 105.165 32.7757 105.165 33.1025C105.165 33.3502 104.98 33.4398 104.81 33.4609L105.244 34.0355H104.961L104.549 33.4741H104.419V34.0355H104.176V32.7203ZM104.419 32.9285V33.2817H104.662C104.792 33.2817 104.911 33.258 104.911 33.1025C104.911 32.947 104.792 32.9285 104.662 32.9285H104.419ZM129.555 33.3898C129.555 34.0855 129.047 34.6153 128.349 34.6153C127.651 34.6153 127.135 34.0644 127.135 33.3898C127.135 32.7151 127.667 32.1484 128.349 32.1484C129.032 32.1484 129.555 32.7098 129.555 33.3898ZM127.368 33.3898C127.368 33.9406 127.791 34.4018 128.349 34.4018C128.907 34.4018 129.331 33.9643 129.331 33.3898C129.331 32.8152 128.902 32.3672 128.349 32.3672C127.796 32.3672 127.368 32.8284 127.368 33.3898ZM127.881 32.7203H128.378C128.571 32.7203 128.87 32.7757 128.87 33.1025C128.87 33.3502 128.685 33.4398 128.516 33.4609L128.95 34.0355H128.667L128.254 33.4741H128.124V34.0355H127.881V32.7203ZM128.124 32.9285V33.2817H128.368C128.497 33.2817 128.616 33.258 128.616 33.1025C128.616 32.947 128.497 32.9285 128.368 32.9285H128.124ZM150.674 33.3898C150.674 34.0855 150.166 34.6153 149.468 34.6153C148.769 34.6153 148.254 34.0644 148.254 33.3898C148.254 32.7151 148.785 32.1484 149.468 32.1484C150.15 32.1484 150.674 32.7098 150.674 33.3898ZM148.486 33.3898C148.486 33.9406 148.91 34.4018 149.468 34.4018C150.026 34.4018 150.449 33.9643 150.449 33.3898C150.449 32.8152 150.02 32.3672 149.468 32.3672C148.915 32.3672 148.486 32.8284 148.486 33.3898ZM148.999 32.7203H149.497C149.69 32.7203 149.989 32.7757 149.989 33.1025C149.989 33.3502 149.804 33.4398 149.634 33.4609L150.068 34.0355H149.785L149.372 33.4741H149.243V34.0355H148.999V32.7203ZM149.243 32.9285V33.2817H149.486C149.616 33.2817 149.735 33.258 149.735 33.1025C149.735 32.947 149.616 32.9285 149.486 32.9285H149.243Z" fill="#232323"/>
<path d="M152.859 18.486C152.859 25.7758 148.751 30.6567 147.738 31.7268C146.728 32.7968 144.72 34.4492 143.945 34.6153C143.168 34.4492 141.163 32.7968 140.152 31.7268C139.139 30.6567 135.031 25.7758 135.031 18.486C135.031 15.745 135.544 13.518 136.42 12C138.602 13.1544 140.776 13.7394 143.945 13.7394C147.114 13.7394 149.288 13.1544 151.471 12C152.346 13.5154 152.859 15.745 152.859 18.486Z" fill="#232323"/>
<path d="M151.255 18.4202C151.255 17.0154 151.036 14.9755 150.546 14.2402L150.464 14.2877C149.134 14.9914 146.658 15.6028 143.941 15.6028C141.225 15.6028 138.664 14.9439 137.334 14.2402C136.845 14.9755 136.625 17.0154 136.625 18.4202C136.625 24.9957 140.058 29.2178 140.527 29.7844C141.159 30.554 143.515 32.6651 143.941 32.7652C144.365 32.6651 146.721 30.554 147.356 29.7844C147.822 29.2152 151.255 24.9957 151.255 18.4202ZM150.139 15.3129C150.578 15.9744 150.668 17.6796 150.631 18.942C150.44 25.4622 147.441 28.6591 147.018 29.173C146.449 29.8661 144.325 31.8454 143.941 31.9456C143.555 31.8454 141.431 29.8661 140.86 29.173C140.437 28.6591 137.44 25.4622 137.249 18.9446C137.212 17.6796 137.3 15.9744 137.739 15.3155C138.939 15.948 141.489 16.3091 143.939 16.3091C146.38 16.3091 148.935 15.9507 150.136 15.3155L150.139 15.3129ZM143.423 29.4287L143.41 28.8093C143.124 28.92 142.897 29.3443 142.899 29.6922C142.899 29.7581 142.918 30.0295 143.047 30.0981C143.095 30.1218 143.132 30.0981 143.153 30.0638C143.248 29.9215 143.227 29.5947 143.423 29.4287ZM144.095 28.1873C144.037 28.1135 143.915 28.0002 143.722 27.9449C143.6 27.908 143.6 27.9185 143.494 27.879C143.518 28.4614 143.547 29.1651 143.555 29.5789C143.566 29.9847 143.579 30.4855 143.579 30.5777C143.814 30.7385 144.111 30.6041 144.111 30.6041C144.116 30.5382 144.169 29.903 144.182 29.2152C144.185 28.9332 144.216 28.3059 144.095 28.1847V28.1873ZM144.433 27.1911C144.325 27.1463 144.047 27.0409 143.915 26.9855C143.746 26.9144 143.449 26.7642 143.33 26.722C143.219 26.6851 143.034 26.6587 143.275 26.5322C143.267 26.3557 143.246 26.2344 143.238 26.1C143.238 25.992 143.219 25.8628 143.209 25.7337C142.235 25.7416 141.844 27.2306 143.431 27.626C143.664 27.6839 143.735 27.7077 143.83 27.7551C144.005 27.8473 144.074 27.9027 144.156 27.9791C144.256 28.074 144.317 28.2005 144.317 28.3692V29.1282C145.23 28.6538 145.319 27.5759 144.433 27.1911ZM144.227 25.9814C144.227 25.8575 144.243 25.6915 144.251 25.565C144.253 25.5044 144.24 25.312 144.243 25.2646C144.084 25.2224 144.082 25.2646 143.764 25.2329C143.592 25.2145 143.515 25.1934 143.373 25.1855C143.367 25.3015 143.378 25.6256 143.386 25.7258L143.407 26.0657V26.3319C143.407 26.3636 143.412 26.5111 143.415 26.5454C143.529 26.606 143.629 26.7035 143.814 26.7773C143.944 26.8248 144.113 26.9065 144.238 26.9249C144.238 26.809 144.232 26.5586 144.238 26.4374C144.24 26.2081 144.224 26.216 144.23 25.9814H144.227ZM144.454 24.0522C144.211 23.9995 144.082 23.9705 144.01 23.9626C143.587 23.9099 143.457 23.9178 143.105 23.8941L142.886 23.3881L142.637 22.7819C141.817 23.0982 141.725 24.7111 142.994 24.9536C143.542 25.059 143.706 25.0484 143.873 25.0669C144.19 25.1012 144.536 25.0669 144.629 25.2039C144.798 25.4464 144.566 25.4912 144.454 25.6177C144.417 25.71 144.417 25.7521 144.41 25.8839C144.388 26.0947 144.383 26.3056 144.38 26.5032C145.748 26.3662 146.153 24.4133 144.454 24.0522ZM142.963 23.1061L143.24 23.7307L144.235 23.8229V21.9069L143.103 21.82L142.698 22.4656L142.963 23.1061ZM144.592 20.6946C144.499 20.6735 144.412 20.6392 144.312 20.6129C144.082 20.5549 143.822 20.5101 143.539 20.4785C143.262 20.4574 143.005 20.3836 142.796 20.3414C141.288 20.0384 141.489 19.3874 141.582 19.0843C141.836 19.1765 142.071 19.2345 142.325 19.2661C142.621 19.303 142.939 19.3136 143.217 19.1897C142.968 18.9762 142.365 18.8787 142.182 18.7127C142.182 18.7127 142.51 18.6705 143.061 18.7338C143.336 18.7654 143.682 18.6073 143.682 18.6073C143.478 18.1197 142.833 17.6664 141.637 17.8641C139.992 18.1355 139.495 21.1795 142.878 21.617C143.076 21.6434 143.463 21.6697 143.687 21.6934C144.039 21.7251 144.203 21.7251 144.41 21.7646C144.552 21.791 144.936 22.3444 144.41 22.3998C144.41 22.3998 144.322 22.9875 144.473 23.6226C146.055 23.6464 146.716 21.2112 144.592 20.6972V20.6946ZM145.476 18.1118C145.301 18.2278 144.772 18.7022 144.566 18.8023C144.457 18.8576 144.481 17.8245 144.481 17.8245C144.489 17.7402 144.216 17.5636 143.925 17.445C143.891 17.4266 143.843 17.3712 143.759 17.3317C143.309 17.1867 143.063 17.0919 143.076 17.5214C143.079 17.59 143.047 17.6769 143.127 17.8087C143.127 17.8087 143.56 18.0196 143.751 18.3833C143.865 18.5994 143.896 18.7311 143.896 18.7311C143.896 18.7311 143.801 18.8102 143.523 18.8497C143.735 18.9183 143.915 19.0052 144.084 19.0369L144.243 19.2082C144.119 19.2213 143.785 19.1765 143.42 19.0579L143.476 19.224C143.33 19.3426 143.264 19.3742 143.016 19.4006C143.002 19.6799 143.021 19.9856 143.063 20.2386L144.288 20.4416C144.386 20.3836 144.494 20.1675 144.507 20.1543C144.727 19.9224 145.142 19.4849 146.018 18.6389C146.348 18.3174 145.827 17.8746 145.478 18.1092L145.476 18.1118ZM142.632 18.2357C142.447 18.1223 142.33 18.1013 142.33 18.1013C142.33 18.1013 142.703 17.9721 143.029 18.1461C143.029 18.1461 142.979 18.2989 142.87 18.3121C142.77 18.3253 142.703 18.2778 142.635 18.2357H142.632Z" fill="white"/>
<path d="M131.995 28.3532H125.713L125.715 34.6154H115.714V28.3532H109.43V18.3677H115.714V12.1055H125.713V18.3677H131.995V28.3532Z" fill="#232323"/>
<path d="M115.121 20.7451H119.279C119.692 20.7478 120.022 20.6292 120.215 20.4289C120.461 20.1785 120.48 19.8016 120.141 19.3878C119.541 18.6552 120.059 17.9541 120.691 17.9779C121.321 18.0042 121.842 18.6552 121.244 19.3878C120.903 19.8016 120.922 20.1759 121.17 20.4289C121.361 20.6265 121.694 20.7478 122.107 20.7478H126.373C125.923 19.7779 125.783 19.5196 125.011 18.8555C123.987 17.9726 122.08 17.1582 120.742 17.1582C119.03 17.1582 117.483 17.8513 116.361 18.9688C115.848 19.4801 115.428 20.081 115.118 20.7451H115.121ZM116.867 28.1456C117.263 27.4024 118.996 24.1845 119.538 23.1751C120.139 22.0523 119.483 21.5832 118.597 21.5305C117.769 21.4831 116.422 21.2617 114.912 21.2274C114.676 21.881 114.547 22.5953 114.547 23.3306C114.547 25.2756 115.451 27.0124 116.867 28.1456ZM124.18 28.4672C124.18 28.4672 121.395 24.4533 121.242 24.1924C121.083 23.9341 120.951 23.7733 120.689 23.7733C120.427 23.7733 120.295 23.9315 120.139 24.1924C120.001 24.4217 117.758 27.6686 117.237 28.4224C118.234 29.1076 119.44 29.5029 120.742 29.5029C122.043 29.5029 123.199 29.1208 124.18 28.4672ZM126.937 23.3306C126.937 22.5873 126.807 21.8758 126.566 21.2169C125.016 21.2432 123.63 21.4804 122.786 21.5305C121.895 21.5832 121.242 22.055 121.839 23.1751C122.445 24.2952 124.458 28.0507 124.537 28.2089C125.998 27.0782 126.937 25.3151 126.937 23.3332V23.3306Z" fill="white"/>
<path d="M119.458 19.9385H116.604C117.233 19.103 118.148 18.4758 119.116 18.2676C118.802 19.3613 119.458 19.4404 119.458 19.9385ZM124.777 19.9385C124.057 19.2216 123.232 18.4758 122.261 18.2676C122.576 19.3639 121.92 19.443 121.92 19.9385H124.777ZM120.69 24.9486C120.508 24.9486 118.466 28.1612 118.466 28.1612C119.066 28.4722 119.828 28.6304 120.69 28.6304C121.553 28.6304 122.314 28.4749 122.917 28.1612C122.917 28.1612 120.873 24.9486 120.69 24.9486ZM122.865 22.3658C122.632 22.3921 122.42 22.4158 122.632 22.8085C122.838 23.1986 124.75 26.7987 124.75 26.7987C125.692 25.6259 126.295 24.1632 125.93 22.1286C125.93 22.1286 123.05 22.3631 122.865 22.3631V22.3658ZM118.516 22.3658C118.333 22.3658 115.453 22.1312 115.453 22.1312C115.085 24.1658 115.688 25.6285 116.63 26.8013C116.63 26.8013 118.542 23.2012 118.754 22.8112C118.96 22.4185 118.754 22.3921 118.516 22.3684V22.3658Z" fill="#232323"/>
<path d="M14.3259 30.3672H6.03619L4.37772 34.613H0.5L8.10731 15.7085H12.4585L20.0975 34.6157H15.9818L14.3233 30.3699L14.3259 30.3672ZM13.0827 27.0939L10.1811 19.6328L7.27939 27.0939H13.0801H13.0827ZM21.5709 20.4867H25.1814V22.4923C25.9221 20.9875 27.3425 20.1019 29.2073 20.1019C32.4634 20.1019 34.5662 22.3737 34.5662 26.0608V34.6157H30.9557V26.5932C30.9557 24.6745 29.8606 23.4648 28.0831 23.4648C26.3056 23.4648 25.1814 24.6745 25.1814 26.5932V34.6157H21.5709V20.4867ZM35.8994 20.4867H38.3858V16.8286H42.0572V20.4867H45.8476V23.6704H42.0572V29.6873C42.0572 31.0129 42.5915 31.6323 43.6548 31.6323C44.3346 31.6323 44.9879 31.3371 45.3424 30.9259L46.9427 33.6089C46.1729 34.3758 44.8398 34.9952 43.094 34.9952C40.2241 34.9952 38.3884 33.2267 38.3884 29.7742V23.6678H35.902V20.4841L35.8994 20.4867ZM48.7017 14.3223H52.3122V22.4923C53.0528 20.9875 54.4733 20.1019 56.3381 20.1019C59.5942 20.1019 61.697 22.3737 61.697 26.0608V34.6157H58.0865V26.5932C58.0865 24.6745 56.9914 23.4648 55.2139 23.4648C53.4364 23.4648 52.3122 24.6745 52.3122 26.5932V34.6157H48.7017V14.3223ZM63.6544 27.5367C63.6544 23.4358 66.7042 20.1046 70.7882 20.1046C74.8723 20.1046 77.9512 23.2013 77.9512 27.2731C77.9512 27.7449 77.9221 28.3063 77.8612 28.5408H67.3522C67.7358 30.4885 69.217 31.8431 71.3781 31.8431C72.8276 31.8431 74.0417 31.2238 74.8723 30.3699L76.7371 32.8472C75.642 34.0569 73.6291 35.0004 71.2617 35.0004C66.8497 35.0004 63.6544 31.6665 63.6544 27.5393V27.5367ZM67.4448 26.0318H74.2242C73.7798 24.1448 72.5075 23.1407 70.8491 23.1407C69.1906 23.1407 67.8892 24.3214 67.4448 26.0318ZM79.9694 34.6157V20.4867H83.5799V22.6399C84.3206 21.1061 85.7119 20.1019 87.5767 20.1019C89.7377 20.1019 91.3962 21.164 92.2241 23.0511C92.9648 21.3696 94.327 20.1019 96.5753 20.1019C99.8605 20.1019 102.022 22.2841 102.022 26.0608V34.6157H98.3793V26.5932C98.3793 24.6745 97.3133 23.4648 95.5966 23.4648C93.88 23.4648 92.7849 24.6745 92.7849 26.5932V34.6157H89.1743V26.5932C89.1743 24.6745 88.1083 23.4648 86.3917 23.4648C84.675 23.4648 83.5799 24.6745 83.5799 26.5932V34.6157H79.9694Z" fill="#232323"/>
</svg>
