<svg width="35" height="35" viewBox="0 0 35 35" fill="none" xmlns="http://www.w3.org/2000/svg">
<path d="M11.6667 13.8542H21.875M11.6667 19.6875H18.9583M4.37504 16.7709C4.37002 18.6957 4.81973 20.5945 5.68754 22.3125C6.71649 24.3713 8.29832 26.103 10.2558 27.3136C12.2134 28.5241 14.4693 29.1658 16.7709 29.1667C18.6957 29.1717 20.5945 28.722 22.3125 27.8542L30.625 30.625L27.8542 22.3125C28.722 20.5945 29.1717 18.6957 29.1667 16.7709C29.1658 14.4693 28.5241 12.2134 27.3136 10.2558C26.103 8.29832 24.3713 6.71649 22.3125 5.68754C20.5945 4.81973 18.6957 4.37002 16.7709 4.37504H16.0417C13.002 4.54274 10.131 5.82574 7.97838 7.97838C5.82574 10.131 4.54274 13.002 4.37504 16.0417V16.7709Z" stroke="#3C1778" stroke-width="2.5" stroke-linecap="round" stroke-linejoin="round"/>
</svg>
