<?xml version="1.0" encoding="UTF-8"?>
<svg xmlns="http://www.w3.org/2000/svg" width="90" height="90" viewBox="0 0 90 90" fill="none">
  <path d="M50.875 15.7505H57.625C58.2463 15.7505 58.75 15.2467 58.75 14.6255C58.75 14.0042 58.2463 13.5005 57.625 13.5005H50.875C50.2537 13.5005 49.75 14.0042 49.75 14.6255C49.75 15.2467 50.2537 15.7505 50.875 15.7505Z" fill="#FCFCFF"></path>
  <path d="M52.563 27.5635H53.1255V27.001C53.1255 26.3797 53.6292 25.876 54.2505 25.876C54.8717 25.876 55.3755 26.3797 55.3755 27.001V27.5635H55.938C56.5592 27.5635 57.063 28.0672 57.063 28.6885C57.063 29.3097 56.5592 29.8135 55.938 29.8135H55.3755V30.376C55.3755 30.9972 54.8717 31.501 54.2505 31.501C53.6292 31.501 53.1255 30.9972 53.1255 30.376V29.8135H52.563C51.9417 29.8135 51.438 29.3097 51.438 28.6885C51.438 28.0672 51.9417 27.5635 52.563 27.5635Z" fill="#FCFCFF"></path>
  <path d="M35.125 56.375C35.7462 56.375 36.25 56.8787 36.25 57.5V75.6903C36.3138 76.5225 36.6894 77.3 37.3012 77.8676C37.9134 78.4346 38.7175 78.75 39.5517 78.7505H68.9482C69.8226 78.7475 70.6608 78.3989 71.2796 77.7802C71.8984 77.1614 72.2469 76.3232 72.2499 75.4488V70.6896C72.2273 65.7205 70.2254 60.9653 66.6866 57.4763C65.0945 55.9058 63.2258 54.6432 61.1741 53.7522C61.7366 55.2655 62.2037 57.0092 62.4624 58.0162C63.6427 58.201 64.715 58.8087 65.4809 59.7253C66.2463 60.6418 66.6531 61.8055 66.625 62.9998V70.3123C66.625 70.6107 66.5065 70.8969 66.2955 71.1079C66.0846 71.3188 65.7983 71.4373 65.5 71.4373H64.375C63.7537 71.4373 63.25 70.9336 63.25 70.3123C63.25 69.6911 63.7537 69.1873 64.375 69.1873V62.9998C64.4021 62.246 64.1143 61.5147 63.581 60.9814C63.0476 60.448 62.3163 60.1603 61.5625 60.1874C60.8087 60.1603 60.0774 60.448 59.5441 60.9814C59.0107 61.5148 58.7229 62.246 58.75 62.9998V69.1873C59.3713 69.1873 59.875 69.6911 59.875 70.3123C59.875 70.9336 59.3713 71.4373 58.75 71.4373H57.625C57.3267 71.4373 57.0404 71.3188 56.8295 71.1079C56.6186 70.8969 56.5 70.6107 56.5 70.3123V62.9998C56.4744 61.8939 56.8215 60.8116 57.4859 59.9267C58.1499 59.0423 59.0926 58.407 60.1618 58.1233C59.7173 56.4358 58.9805 53.9552 58.3447 52.8865C58.3447 52.8529 58.3165 52.8192 58.2995 52.7911C56.8721 52.4486 55.4081 52.2874 53.9406 52.3125C52.0432 52.3481 50.1638 52.6841 48.3719 53.3079C47.2469 55.3837 46.6844 58.3704 46.4821 59.8782C47.7754 60.2664 48.7993 61.2583 49.2282 62.5384C49.6571 63.8186 49.4376 65.2279 48.6396 66.3168C47.8416 67.4061 46.5643 68.0394 45.2143 68.0158C43.8643 67.9922 42.6097 67.3142 41.8499 66.1982C41.0905 65.0818 40.9202 63.666 41.3938 62.4014C41.8675 61.1373 42.9256 60.1815 44.2319 59.839C44.4464 58.0882 44.8231 56.3615 45.3569 54.6805C45.1545 54.7986 44.9521 54.9111 44.7553 55.0351C44.2274 55.3641 43.5318 55.2034 43.2024 54.675C42.8734 54.1467 43.0341 53.4516 43.5625 53.1226C45.2139 52.0936 47.0063 51.3106 48.8837 50.7994C45.6282 48.8818 43.6102 45.4033 43.5625 41.6251V27.562C43.6182 26.0879 44.2284 24.6892 45.2716 23.6461C46.3147 22.603 47.7134 21.9928 49.1875 21.937H59.3125C60.7866 21.9927 62.1853 22.603 63.2284 23.6461C64.2715 24.6892 64.8817 26.0879 64.9375 27.562V41.6251C64.8918 45.4054 62.8738 48.8869 59.6163 50.8049C62.8783 51.738 65.852 53.4793 68.2617 55.8674C69.8809 57.4666 71.2278 59.3188 72.25 61.3517V14.5517C72.247 13.6773 71.8984 12.8391 71.2797 12.2203C70.6609 11.6015 69.8227 11.253 68.9483 11.25H39.5517C38.6773 11.253 37.8391 11.6016 37.2203 12.2203C36.6015 12.8391 36.253 13.6773 36.25 14.5517V24.1883C36.25 24.8095 35.7463 25.3133 35.125 25.3133C34.5038 25.3133 34 24.8095 34 24.1883V14.5517C34.0015 13.0802 34.5871 11.6684 35.6277 10.6277C36.6683 9.58706 38.0801 9.00154 39.5517 9H68.9483C70.4198 9.00151 71.8316 9.58711 72.8723 10.6277C73.9129 11.6683 74.4985 13.0801 74.5 14.5517V75.4483C74.4985 76.9198 73.9129 78.3316 72.8723 79.3723C71.8317 80.413 70.4199 80.9985 68.9483 81H39.5517C38.1385 81.0015 36.7774 80.4641 35.7458 79.4973C34.7147 78.531 34.0899 77.2075 34 75.7969V57.4996C34 57.2012 34.1185 56.915 34.3295 56.704C34.5404 56.4931 34.8267 56.375 35.125 56.375ZM43.3712 63.8552C43.3712 64.3629 43.5736 64.8491 43.9332 65.2073C44.2928 65.5648 44.7804 65.7647 45.2877 65.7622C45.7949 65.7597 46.2806 65.5548 46.6366 65.1937C46.9927 64.8321 47.1901 64.3439 47.1851 63.8366C47.18 63.3289 46.9731 62.8447 46.6095 62.4901C46.2464 62.136 45.7572 61.9412 45.25 61.9487C44.7493 61.9557 44.2711 62.1601 43.9195 62.5167C43.568 62.8738 43.3712 63.3545 43.3712 63.8552ZM62.6877 27.5633C62.6345 26.6854 62.2618 25.8577 61.6401 25.2359C61.0183 24.6142 60.1907 24.2415 59.3127 24.1883H49.1877C48.3098 24.2415 47.4821 24.6142 46.8603 25.2359C46.2385 25.8577 45.8659 26.6853 45.8126 27.5633V33.1883H62.6876L62.6877 27.5633ZM62.6877 41.6265V35.439H45.8127V41.6265C45.8685 43.8469 46.775 45.9607 48.3455 47.5312C49.916 49.1017 52.0298 50.0083 54.2502 50.064C56.4707 50.0082 58.5845 49.1017 60.155 47.5312C61.7255 45.9607 62.6321 43.8469 62.6877 41.6265Z" fill="#FCFCFF"></path>
  <path d="M22.4073 31.5335C22.4073 31.1288 22.1913 30.7545 21.8407 30.5521C21.4904 30.3498 21.0583 30.3498 20.7077 30.5521C20.3573 30.7545 20.1411 31.1288 20.1411 31.5335V41.8511C20.1411 42.1491 20.2585 42.435 20.4675 42.6472C20.6767 42.8593 20.9612 42.9805 21.2589 42.9845C21.5569 42.9886 21.8442 42.8752 22.0592 42.6689L25.91 38.9724C26.202 38.692 26.3222 38.277 26.2254 37.8838C26.1286 37.491 25.8294 37.1794 25.4406 37.0667C25.0519 36.9539 24.6324 37.0571 24.3405 37.3375L22.4076 39.1932L22.4073 31.5335Z" fill="#FCFCFF"></path>
  <path d="M33.6074 27.5935C33.3088 27.3198 32.8874 27.2261 32.5012 27.3478C32.1151 27.4695 31.8231 27.7878 31.7355 28.1832C31.6476 28.5783 31.7774 28.9902 32.0757 29.2639C34.7605 31.7256 36.5243 35.0298 37.0758 38.6299C37.6273 42.2301 36.9333 45.911 35.1085 49.0629C33.284 52.2154 30.4379 54.6504 27.0412 55.9653C23.6445 57.2802 19.9006 57.3964 16.4291 56.2945C12.9572 55.1926 9.96576 52.9385 7.9496 49.9055C5.93285 46.8722 5.01194 43.2416 5.33945 39.6138C5.66667 35.9864 7.22234 32.5791 9.74931 29.9556C12.276 27.3321 15.6226 25.65 19.2359 25.1872L18.334 26.3753H18.3337C18.0889 26.6976 18.0345 27.126 18.1915 27.4994C18.3482 27.8726 18.6921 28.1339 19.0936 28.1848C19.4954 28.2356 19.8935 28.0683 20.1382 27.746L22.5452 24.5762C22.7131 24.355 22.7938 24.0799 22.7724 23.803C22.7507 23.526 22.6284 23.2668 22.4281 23.074L19.5587 20.3163C19.2668 20.0357 18.8473 19.9322 18.4586 20.0446C18.0695 20.1571 17.77 20.4687 17.6732 20.8615C17.5761 21.2546 17.6961 21.6697 17.988 21.9501L19.0087 22.9309V22.9311C14.8778 23.4454 11.0464 25.3555 8.1494 28.3446C5.25222 31.3337 3.46323 35.2229 3.07822 39.3681C2.69349 43.5129 3.73582 47.6648 6.03327 51.1368C8.3304 54.6083 11.7445 57.191 15.71 58.4571C19.6759 59.7232 23.9549 59.5969 27.8391 58.0987C31.7228 56.6005 34.9788 53.8209 37.0667 50.2194C39.1549 46.6183 39.9506 42.4118 39.3217 38.2968C38.6927 34.1817 36.6771 30.4048 33.6085 27.5922L33.6074 27.5935Z" fill="#FCFCFF"></path>
  <path d="M25.4934 25.6222C26.3979 25.8691 27.2789 26.1951 28.1262 26.5966L28.8268 26.9811C29.1815 27.1722 29.6108 27.1606 29.9544 26.9507C30.2981 26.7409 30.5048 26.3645 30.497 25.9619C30.4892 25.5592 30.2683 25.191 29.9168 24.9944L29.1618 24.5817C28.1741 24.1079 27.1457 23.7246 26.0892 23.4359C25.6993 23.331 25.283 23.4417 24.9965 23.7264C24.7101 24.0111 24.5968 24.4268 24.6991 24.8176C24.8017 25.2084 25.1044 25.5148 25.4937 25.6223L25.4934 25.6222Z" fill="#FCFCFF"></path>
</svg>
