<svg width="40" height="40" viewBox="0 0 40 40" fill="none" xmlns="http://www.w3.org/2000/svg">
<circle cx="20" cy="20" r="20" fill="#6A51FF"/>
<path d="M29.8922 13.2548C29.2372 12.6494 28.0972 12.6494 27.4423 13.2548L16.5389 23.3331L12.5609 19.6561C11.9059 19.0507 10.7659 19.0507 10.111 19.6561C9.78349 19.9587 9.60156 20.3623 9.60156 20.7883C9.60156 21.2143 9.78349 21.6179 10.111 21.9206L15.314 26.7299C15.6414 27.0326 16.0781 27.2008 16.5389 27.2008C16.9998 27.2008 17.4364 27.0326 17.7639 26.7299L29.8922 15.5193C30.2196 15.2167 30.4016 14.8131 30.4016 14.3871C30.4016 13.9611 30.2196 13.5575 29.8922 13.2548Z" fill="#FCFCFF"/>
</svg>
