<svg width="93" height="45" viewBox="0 0 93 45" fill="none" xmlns="http://www.w3.org/2000/svg">
<mask id="mask0_18462_18932" style="mask-type:luminance" maskUnits="userSpaceOnUse" x="0" y="13" width="93" height="19">
<path d="M0.90918 13.125H92.3162V31.875H0.90918V13.125Z" fill="white"/>
</mask>
<g mask="url(#mask0_18462_18932)">
<path d="M26.4572 17.5785C26.385 17.5769 26.3133 17.5899 26.2463 17.6167C26.1793 17.6436 26.1185 17.6837 26.0674 17.7348C26.0164 17.7858 25.9763 17.8466 25.9494 17.9136C25.9225 17.9806 25.9095 18.0523 25.9112 18.1245V28.8285C25.1297 28.9845 24.2702 29.1405 23.4107 29.1405C21.5357 29.1405 20.9102 28.437 20.9102 26.406V18.126C20.9102 17.811 20.6762 17.5785 20.4422 17.5785H17.6297V26.406C17.6297 30.546 19.8167 31.875 23.3327 31.875C26.1452 31.875 28.9577 31.0935 29.1917 31.0155V17.5785H26.4572ZM69.5042 31.719C69.7382 31.719 70.0517 31.4835 70.0517 31.1715V20.391C70.8317 20.235 71.6912 20.0775 72.5507 20.0775C74.4257 20.0775 75.0512 20.781 75.0512 22.812V31.1715C75.0512 31.485 75.2852 31.719 75.5207 31.719H78.3317V22.812C78.3317 18.672 76.1447 17.343 72.6287 17.343C69.8162 17.343 67.0037 18.1245 66.7697 18.2025V31.7175L69.5042 31.719ZM58.2542 17.343C54.5822 17.343 52.3172 19.2975 52.3172 23.5935V25.7025C52.3172 30.39 54.8162 31.953 57.4727 31.953C58.8017 31.953 60.2072 31.0155 60.5987 30.468V31.3275C60.5987 31.5615 60.8327 31.797 61.0667 31.797H63.8792V18.1245C63.9572 18.1245 61.2242 17.343 58.2542 17.343ZM60.6767 28.281C60.0512 28.8285 59.5817 29.1405 58.2542 29.1405C56.3792 29.2185 55.5992 28.0455 55.5992 25.6245V23.6715C55.5992 20.937 56.6132 20.1555 58.2542 20.1555C59.5832 20.1555 60.3632 20.235 60.6767 20.3115V28.281ZM86.6132 17.343C82.9412 17.343 80.6762 19.2975 80.6762 23.5935V25.7025C80.6762 30.39 83.1767 31.953 85.9112 31.953C87.2387 31.953 88.6442 31.0155 89.0357 30.468V31.3275C89.0357 31.5615 89.2697 31.797 89.5037 31.797H92.3162V18.1245C92.3162 18.1245 89.5832 17.343 86.6132 17.343ZM89.0357 28.281C88.4102 28.8285 87.9407 29.1405 86.6132 29.1405C84.7382 29.1405 83.9582 28.0455 83.9582 25.6245V23.6715C83.9582 20.859 84.9737 20.1555 86.6132 20.1555C87.9422 20.1555 88.7237 20.235 89.0357 20.3115V28.281ZM0.91068 31.719H3.88068C4.00227 31.7106 4.11669 31.6583 4.20273 31.572C4.28878 31.4857 4.34063 31.3711 4.34868 31.2495V23.4375H9.81618C10.7537 23.4375 11.3792 24.141 11.3792 24.9225V31.2495C11.3792 31.485 11.6132 31.719 11.8487 31.719H14.8172V13.125H11.8472C11.7258 13.1334 11.6116 13.1854 11.5256 13.2714C11.4396 13.3574 11.3876 13.4716 11.3792 13.593V20.625H5.75418C5.57933 20.6264 5.40596 20.593 5.24417 20.5267C5.08238 20.4603 4.93541 20.3625 4.81184 20.2388C4.68827 20.1151 4.59057 19.968 4.52444 19.8061C4.45832 19.6443 4.42508 19.4708 4.42668 19.296V13.5945C4.34868 13.4385 4.19118 13.1265 3.87918 13.1265H0.90918V31.7205L0.91068 31.719ZM44.8952 17.343C43.3322 17.343 41.8487 17.9685 41.1452 18.438C40.1297 17.6565 38.7227 17.343 37.0052 17.343C34.4252 17.343 32.2382 18.1245 31.9262 18.2805V31.7955H34.7387C35.0507 31.7955 35.2082 31.563 35.2082 31.2495V20.3895C35.9102 20.2335 36.4577 20.1555 36.9257 20.1555C38.8787 20.1555 39.3482 20.937 39.3482 22.89V31.2495C39.3482 31.485 39.5042 31.797 39.8162 31.797H42.1607C42.4727 31.797 42.6287 31.5615 42.6287 31.2495V20.781C43.2004 20.3776 43.882 20.1593 44.5817 20.1555C46.0667 20.1555 46.6922 20.8605 46.6922 22.656V31.251C46.6922 31.4835 46.8482 31.797 47.1602 31.797H49.9727V22.185C50.0507 18.5925 47.7857 17.3415 44.8952 17.3415V17.343Z" fill="#232323"/>
</g>
</svg>
