<svg width="90" height="90" viewBox="0 0 90 90" fill="none" xmlns="http://www.w3.org/2000/svg">
<path d="M31.9702 19.94C31.6002 20.13 31.3602 20.49 31.3002 20.9C31.2202 21.51 31.1702 22.13 31.1602 22.75C31.1702 23.37 31.2102 23.99 31.3002 24.6C31.3502 25.01 31.6002 25.37 31.9702 25.56L33.2302 26.21C33.4802 27.04 33.8202 27.85 34.2402 28.61L33.8002 29.98C33.6802 30.37 33.7502 30.8 34.0002 31.12C34.7502 32.1 35.6302 32.98 36.6202 33.74C36.9502 33.99 37.3702 34.06 37.7602 33.94L39.1302 33.5C39.8902 33.92 40.7002 34.26 41.5302 34.51L42.1802 35.77C42.3702 36.14 42.7302 36.38 43.1402 36.44C44.3702 36.62 45.6102 36.62 46.8402 36.44C47.2502 36.39 47.6102 36.14 47.8002 35.77L48.4502 34.51C49.2802 34.26 50.0902 33.92 50.8502 33.5L52.2202 33.94C52.6102 34.06 53.0402 33.99 53.3602 33.74C54.3402 32.99 55.2202 32.11 55.9802 31.12C56.2302 30.79 56.3102 30.37 56.1802 29.98L55.7402 28.61C56.1602 27.85 56.5002 27.04 56.7502 26.21L58.0002 25.54C58.3602 25.35 58.6102 24.99 58.6702 24.58C58.7602 23.97 58.8202 23.35 58.8302 22.73C58.8202 22.11 58.7802 21.49 58.6902 20.88C58.6402 20.47 58.3902 20.11 58.0202 19.92L56.7602 19.27C56.5102 18.44 56.1702 17.63 55.7502 16.87L56.1902 15.5C56.3102 15.11 56.2402 14.68 55.9902 14.36C55.2402 13.38 54.3602 12.5 53.3702 11.74C53.0402 11.49 52.6202 11.42 52.2302 11.54L50.8602 11.98C50.1002 11.56 49.2902 11.22 48.4602 10.97L47.8102 9.70996C47.6202 9.33996 47.2602 9.09996 46.8502 9.03996C45.6302 8.84996 44.3802 8.84996 43.1502 9.03996C42.7402 9.08996 42.3802 9.33996 42.1902 9.70996L41.5402 10.97C40.7102 11.22 39.9002 11.56 39.1402 11.98L37.7602 11.54C37.3702 11.42 36.9402 11.49 36.6202 11.74C35.6402 12.49 34.7602 13.37 34.0002 14.36C33.7502 14.69 33.6802 15.11 33.8002 15.5L34.2402 16.87C33.8202 17.63 33.4802 18.44 33.2302 19.27L31.9702 19.94ZM33.6802 21.86L34.8502 21.26C35.1802 21.1 35.4202 20.8 35.5002 20.44C35.7502 19.47 36.1502 18.55 36.6802 17.71C36.8702 17.4 36.9202 17.02 36.8102 16.67L36.4102 15.41C36.7902 14.95 37.2102 14.53 37.6702 14.15L38.9302 14.55C39.2802 14.66 39.6602 14.62 39.9702 14.42C40.8202 13.9 41.7502 13.51 42.7202 13.28C43.0602 13.2 43.3402 12.98 43.5102 12.68L44.1102 11.42C44.7002 11.37 45.2802 11.37 45.8702 11.42L46.4702 12.59C46.6302 12.92 46.9302 13.16 47.2902 13.24C48.2602 13.49 49.1802 13.89 50.0202 14.42C50.3302 14.61 50.7102 14.66 51.0602 14.55L52.3202 14.15C52.7802 14.53 53.2002 14.95 53.5802 15.41L53.1802 16.67C53.0702 17.02 53.1102 17.4 53.3102 17.71C53.8302 18.56 54.2202 19.49 54.4502 20.46C54.5402 20.81 54.7802 21.11 55.1002 21.28L56.2702 21.88V22.76V23.64L55.1002 24.24C54.7702 24.4 54.5302 24.7 54.4502 25.06C54.2102 26.01 53.8202 26.93 53.3102 27.76C53.1202 28.07 53.0702 28.45 53.1802 28.8L53.5802 30.06C53.2002 30.52 52.7802 30.94 52.3202 31.32L51.0602 30.92C50.7102 30.81 50.3302 30.85 50.0202 31.05C49.1702 31.57 48.2402 31.96 47.2702 32.19C46.9202 32.28 46.6202 32.52 46.4502 32.84L45.8702 34.05C45.2802 34.1 44.7002 34.1 44.1102 34.05L43.5102 32.79C43.3502 32.46 43.0502 32.22 42.6902 32.14C41.7302 31.92 40.8102 31.55 39.9602 31.05C39.6502 30.86 39.2702 30.81 38.9202 30.92L37.6602 31.32C37.2002 30.94 36.7802 30.52 36.4002 30.06L36.8002 28.8C36.9102 28.45 36.8702 28.07 36.6702 27.76C36.1502 26.91 35.7602 25.98 35.5302 25.01C35.4402 24.66 35.2002 24.36 34.8802 24.19L33.6702 23.61V22.73L33.6802 21.86Z" fill="#232323"/>
<path d="M45.0013 28.71C46.5813 28.71 48.1013 28.08 49.2213 26.96C50.3413 25.84 50.9713 24.32 50.9713 22.74C50.9713 21.16 50.3413 19.64 49.2213 18.52C48.1013 17.4 46.5813 16.77 45.0013 16.77C43.4213 16.77 41.9012 17.4 40.7812 18.52C39.6612 19.64 39.0312 21.16 39.0312 22.74C39.0312 24.32 39.6612 25.84 40.7812 26.96C41.9012 28.08 43.4213 28.71 45.0013 28.71ZM45.0013 19.28C45.9213 19.28 46.8013 19.64 47.4513 20.29C48.1013 20.94 48.4613 21.82 48.4613 22.74C48.4613 23.66 48.1013 24.54 47.4513 25.19C46.8013 25.84 45.9213 26.2 45.0013 26.2C44.0813 26.2 43.2013 25.84 42.5513 25.19C41.9013 24.54 41.5413 23.66 41.5413 22.74C41.5413 21.82 41.9013 20.94 42.5513 20.29C43.2013 19.64 44.0813 19.28 45.0013 19.28Z" fill="#232323"/>
<path d="M58.4009 60.9298L55.4009 60.0098C52.4209 59.0698 49.5809 57.7298 46.9709 56.0098L45.6509 55.1398C45.2509 54.8798 44.7409 54.8798 44.3509 55.1398L43.0309 55.9998C40.4209 57.7098 37.5809 59.0598 34.6009 59.9998L31.6009 60.9198C31.0209 61.0898 30.6709 61.6698 30.7709 62.2598C31.4509 67.7498 34.2209 72.7698 38.5109 76.2698L44.2509 80.8198C44.6809 81.1598 45.2909 81.1598 45.7209 80.8198L51.4609 76.2698C55.7609 72.7798 58.5409 67.7598 59.2309 62.2598C59.3309 61.6698 58.9809 61.0998 58.4009 60.9298ZM50.0009 74.4198L45.0009 78.3798L40.0009 74.4198C36.4609 71.5198 34.0709 67.4498 33.2909 62.9398L35.3209 62.3098C38.5109 61.2998 41.5409 59.8698 44.3309 58.0398L45.0009 57.6098L45.6809 58.0498C48.4809 59.8798 51.5109 61.3098 54.6909 62.3198L56.7209 62.9498C55.9309 67.4498 53.5509 71.5298 50.0009 74.4198Z" fill="#232323"/>
<path d="M14.0093 63.4301L18.1793 66.6101C18.6093 66.9401 19.1993 66.9401 19.6293 66.6101L23.7993 63.4301C26.9693 60.9701 29.0493 57.3501 29.5793 53.3701C29.6593 52.7901 29.3093 52.2501 28.7493 52.0801L26.5593 51.4401C24.4293 50.8001 22.3993 49.8701 20.5093 48.6901L19.5393 48.0701C19.1593 47.8301 18.6693 47.8301 18.2793 48.0701L17.3093 48.6901C15.4293 49.8701 13.3893 50.8001 11.2593 51.4401L9.07934 52.0901C8.51934 52.2501 8.16934 52.8001 8.23934 53.3701C8.76934 57.3501 10.8393 60.9601 14.0093 63.4301ZM11.9493 53.7001C14.2893 53.0001 16.5193 51.9801 18.5793 50.6801L18.9093 50.4701L19.2393 50.6801C21.2993 51.9801 23.5293 53.0001 25.8693 53.7001L27.0593 54.0401C26.4293 57.0101 24.7693 59.6701 22.3793 61.5401L18.9193 64.1701L15.4693 61.5401C13.0693 59.6701 11.4093 57.0201 10.7893 54.0401L11.9493 53.7001Z" fill="#232323"/>
<path d="M80.9193 52.0801L78.7393 51.4401C76.6093 50.8001 74.5793 49.8701 72.6893 48.6901L71.7193 48.0701C71.3393 47.8301 70.8493 47.8301 70.4593 48.0701L69.4893 48.6901C67.6093 49.8701 65.5693 50.8001 63.4393 51.4401L61.2593 52.0901C60.6993 52.2601 60.3493 52.8101 60.4293 53.3801C60.9593 57.3601 63.0293 60.9701 66.1893 63.4401L70.3593 66.6201C70.7893 66.9501 71.3793 66.9501 71.8093 66.6201L75.9793 63.4401C79.1493 60.9701 81.2293 57.3601 81.7593 53.3701C81.8393 52.7901 81.4793 52.2401 80.9193 52.0801ZM74.5393 61.5701L71.0893 64.1801L67.6393 61.5501C65.2193 59.6901 63.5393 57.0401 62.8993 54.0501L64.0893 53.7101C66.4293 53.0101 68.6593 51.9901 70.7193 50.6901L71.0493 50.4801L71.3793 50.6901C73.4393 51.9901 75.6693 53.0101 78.0093 53.7101L79.1993 54.0501C78.5793 57.0201 76.9393 59.6701 74.5493 61.5501L74.5393 61.5701Z" fill="#232323"/>
<path d="M44.9986 39.3799C45.6486 39.3799 46.1886 40.0299 46.1886 40.5699V51.2399C46.1886 51.8899 45.6586 52.4299 44.9986 52.4299C44.3486 52.4299 43.8086 51.7799 43.8086 51.2399V40.5699C43.8086 39.9099 44.3386 39.3799 44.9986 39.3799Z" fill="#232323"/>
<path d="M24.8084 46.7299C25.2984 47.1599 26.0484 47.1099 26.4784 46.6199L33.2184 38.9099C33.6484 38.4199 33.5984 37.6699 33.1084 37.2399C32.6184 36.8099 31.8684 36.8599 31.4384 37.3499L24.6984 45.0599C24.2684 45.5499 24.3084 46.2999 24.8084 46.7299Z" fill="#232323"/>
<path d="M63.5209 46.6199C63.9509 47.1099 64.7009 47.1599 65.1909 46.7299C65.6809 46.2999 65.7309 45.5499 65.3009 45.0599L58.5609 37.3499C58.1309 36.8599 57.3809 36.8099 56.8909 37.2399C56.4009 37.6699 56.3509 38.4199 56.7809 38.9099L63.5209 46.6199Z" fill="#232323"/>
</svg>
