<svg width="162" height="47" viewBox="0 0 162 47" fill="none" xmlns="http://www.w3.org/2000/svg">
<mask id="mask0_74_701" style="mask-type:luminance" maskUnits="userSpaceOnUse" x="0" y="15" width="161" height="25">
<path d="M0 15.666H160.559V39.166H0V15.666Z" fill="white"/>
</mask>
<g mask="url(#mask0_74_701)">
<path fill-rule="evenodd" clip-rule="evenodd" d="M3.56053 16.6149H6.70699L10.6106 28.3868L14.5723 16.6149H17.6733L20.5203 33.4941H17.4209L15.607 22.833L12.0106 33.4941H9.17619L5.62995 22.833L3.78001 33.4941H0.644531L3.56053 16.6149ZM35.2649 28.1581H25.1938C25.3396 29.0448 25.7268 29.7514 26.3602 30.2746C26.992 30.7995 27.7978 31.0611 28.7776 31.0611C29.9487 31.0611 30.9552 30.6522 31.7971 29.8328L34.4372 31.0721C33.7787 32.0058 32.9917 32.6967 32.0715 33.1432C31.1543 33.5913 30.0632 33.8153 28.7996 33.8153C26.8399 33.8153 25.2439 33.1965 24.0117 31.9619C22.7794 30.7258 22.1618 29.1795 22.1618 27.3199C22.1618 25.4148 22.7779 23.8341 24.0054 22.576C25.2345 21.3164 26.7756 20.6882 28.6271 20.6882C30.5946 20.6882 32.1953 21.3164 33.4276 22.576C34.6598 23.8341 35.2759 25.4963 35.2759 27.5612L35.2649 28.1565V28.1581ZM32.1185 25.6906C31.9171 25.0015 31.4855 24.4021 30.8956 23.9923C30.2779 23.5535 29.5355 23.3246 28.7776 23.339C27.9522 23.3239 27.1448 23.5816 26.4809 24.0722C26.067 24.3793 25.6845 24.9182 25.3317 25.6906H32.1185ZM47.034 16.1903H50.1569V33.4926H47.034V32.1734C46.4226 32.7547 45.808 33.1745 45.1919 33.4299C44.5742 33.6868 43.9063 33.8153 43.1867 33.8153C41.572 33.8153 40.1751 33.1886 38.9962 31.9384C37.8172 30.6882 37.2278 29.1341 37.2278 27.2745C37.2278 25.3475 37.7984 23.7667 38.9382 22.5353C40.0795 21.3039 41.4654 20.6866 43.0958 20.6866C43.8452 20.6866 44.5507 20.8292 45.2076 21.1128C45.866 21.3948 46.4759 21.8193 47.034 22.3865V16.1903ZM43.7386 23.5787C42.7666 23.5787 41.9592 23.9218 41.3149 24.6064C40.6721 25.2911 40.3507 26.1684 40.3507 27.2384C40.3507 28.3194 40.6784 29.2062 41.3337 29.9018C41.9874 30.5974 42.7917 30.9452 43.7496 30.9452C44.7372 30.9452 45.5572 30.6036 46.2078 29.919C46.8584 29.2344 47.1829 28.3367 47.1829 27.229C47.1829 26.1418 46.8584 25.2629 46.2078 24.5892C45.5572 23.9155 44.7341 23.5787 43.7386 23.5787ZM54.556 15.8691C55.1047 15.8691 55.5782 16.0681 55.9732 16.4645C56.3668 16.8624 56.5643 17.3449 56.5643 17.9105C56.5643 18.4698 56.3699 18.9445 55.9795 19.3393C55.5876 19.7341 55.122 19.9299 54.578 19.9299C54.311 19.9341 54.046 19.8827 53.7999 19.7791C53.5538 19.6756 53.3319 19.5221 53.1482 19.3283C52.9561 19.1369 52.8047 18.9085 52.7031 18.6571C52.6016 18.4056 52.5519 18.1362 52.5571 17.8651C52.5571 17.3136 52.7515 16.8436 53.1419 16.4551C53.5338 16.0634 54.0057 15.8691 54.556 15.8691ZM52.982 21.0078H56.1269V33.4941H52.9804L52.982 21.0078ZM71.1929 23.5333L68.5873 24.9683C68.0966 24.4545 67.6122 24.0988 67.134 23.9014C66.5986 23.6917 66.0269 23.59 65.4518 23.6022C64.2807 23.6022 63.3338 23.9516 62.6095 24.6519C61.8868 25.3522 61.5246 26.2499 61.5246 27.3434C61.5246 28.4056 61.8727 29.2751 62.5703 29.9472C63.2664 30.6209 64.1819 30.9577 65.3139 30.9577C66.7154 30.9577 67.8066 30.4799 68.5873 29.5226L71.0549 31.2099C69.7161 32.9458 67.8254 33.8153 65.3828 33.8153C63.1864 33.8153 61.465 33.1651 60.2218 31.8648C58.977 30.5645 58.3562 29.0417 58.3562 27.2964C58.3464 26.1167 58.662 24.9572 59.2685 23.9451C59.875 22.933 60.749 22.1075 61.7943 21.5593C62.8776 20.9796 64.0895 20.6882 65.4283 20.6882C66.6684 20.6882 67.7831 20.9342 68.7707 21.4277C69.7458 21.91 70.5799 22.6352 71.1929 23.5333ZM83.2488 21.0094H86.3733V33.4941H83.2488V32.1734C82.6358 32.7547 82.0213 33.1745 81.4052 33.4299C80.7697 33.6904 80.0885 33.8214 79.4016 33.8153C77.7868 33.8153 76.39 33.1886 75.211 31.9384C74.0321 30.6882 73.4426 29.1341 73.4426 27.2745C73.4426 25.3475 74.0133 23.7667 75.153 22.5353C76.2943 21.3039 77.6786 20.6866 79.3091 20.6866C80.06 20.6866 80.764 20.8292 81.4224 21.1128C82.0809 21.3948 82.6891 21.8193 83.2488 22.3865V21.0078V21.0094ZM79.9534 23.5787C78.9814 23.5787 78.174 23.9218 77.5313 24.6064C76.8885 25.2911 76.5671 26.1684 76.5671 27.2384C76.5671 28.3194 76.8948 29.2062 77.5485 29.9018C78.2038 30.5974 79.0081 30.9452 79.966 30.9452C80.9537 30.9452 81.772 30.6036 82.4226 29.919C83.0732 29.2344 83.3993 28.3367 83.3993 27.229C83.3993 26.1418 83.0732 25.2629 82.4226 24.5892C81.772 23.9155 80.9489 23.5787 79.9534 23.5787ZM88.808 21.0094H91.4936V22.5807C91.7852 21.9619 92.1708 21.4903 92.6537 21.1707C93.1208 20.854 93.6727 20.6857 94.2371 20.6882C94.6447 20.6882 95.068 20.7947 95.5133 21.0094L94.5366 23.7056C94.1697 23.5223 93.8671 23.4299 93.6304 23.4299C93.1475 23.4299 92.7399 23.7275 92.4076 24.326C92.0736 24.9213 91.9075 26.0916 91.9075 27.8353L91.9184 28.4448V33.4941H88.8065V21.0078L88.808 21.0094ZM109.579 28.1581H99.5094C99.6537 29.0448 100.042 29.7514 100.674 30.2746C101.306 30.7995 102.112 31.0611 103.092 31.0611C104.263 31.0611 105.269 30.6522 106.112 29.8328L108.753 31.0721C108.094 32.0058 107.306 32.6967 106.385 33.1432C105.469 33.5913 104.379 33.8153 103.114 33.8153C101.154 33.8153 99.558 33.1965 98.3258 31.9619C97.0936 30.7258 96.4774 29.1795 96.4774 27.3199C96.4774 25.4148 97.092 23.8341 98.3211 22.576C99.5486 21.3164 101.09 20.6882 102.943 20.6882C104.909 20.6882 106.51 21.3164 107.742 22.576C108.974 23.8341 109.592 25.4963 109.592 27.5612L109.579 28.1565V28.1581ZM106.432 25.6906C106.231 25.0016 105.8 24.4023 105.21 23.9923C104.592 23.5536 103.85 23.3247 103.092 23.339C102.266 23.3239 101.459 23.5816 100.795 24.0722C100.381 24.3793 99.9986 24.9182 99.6474 25.6906H106.432ZM113.844 30.9687C114.236 30.9687 114.568 31.1065 114.842 31.3823C115.118 31.658 115.256 31.9933 115.256 32.3912C115.259 32.5778 115.223 32.7631 115.152 32.9358C115.081 33.1084 114.976 33.2648 114.842 33.3954C114.713 33.5305 114.559 33.6375 114.387 33.7098C114.215 33.782 114.03 33.8179 113.844 33.8153C113.657 33.8179 113.472 33.782 113.3 33.7098C113.129 33.6375 112.973 33.5305 112.844 33.3954C112.712 33.265 112.606 33.1088 112.535 32.9365C112.464 32.7642 112.428 32.5792 112.431 32.3928C112.431 31.9933 112.569 31.6564 112.844 31.3823C112.974 31.2488 113.13 31.1433 113.301 31.0722C113.473 31.0011 113.658 30.9657 113.844 30.9687ZM129.345 21.0094H130.964V30.9577C130.964 32.7092 130.811 33.9908 130.506 34.8023C130.111 35.917 129.333 36.8558 128.311 37.4515C127.271 38.0719 126.019 38.3821 124.558 38.3821C123.485 38.3821 122.523 38.2302 121.67 37.9278C120.815 37.6254 120.121 37.2212 119.585 36.7121C119.05 36.2029 118.556 35.4587 118.103 34.4796H119.849C120.325 35.3068 120.936 35.9178 121.687 36.3157C122.436 36.7136 123.366 36.9126 124.477 36.9126C125.571 36.9126 126.495 36.7089 127.249 36.2985C128.003 35.8911 128.541 35.3741 128.864 34.7553C129.183 34.1365 129.345 33.1385 129.345 31.7614V31.1191C128.755 31.8721 127.996 32.4755 127.129 32.88C126.259 33.2884 125.31 33.4982 124.351 33.4941C123.215 33.4973 122.097 33.2023 121.112 32.6387C120.134 32.1011 119.323 31.3049 118.769 30.3373C118.218 29.3699 117.932 28.2736 117.943 27.1601C117.943 26.0039 118.23 24.9276 118.805 23.9296C119.371 22.9392 120.194 22.1201 121.188 21.5593C122.161 20.9896 123.268 20.689 124.396 20.6882C125.299 20.6816 126.192 20.8798 127.007 21.2679C127.816 21.6533 128.594 22.2909 129.343 23.1776L129.345 21.0094ZM124.603 22.2376C123.692 22.2376 122.847 22.457 122.065 22.8956C121.297 23.3238 120.661 23.9552 120.229 24.7208C119.787 25.4868 119.558 26.3561 119.563 27.24C119.563 28.6093 120.022 29.7404 120.94 30.6365C121.859 31.5311 123.049 31.9792 124.511 31.9792C125.988 31.9792 127.176 31.5342 128.077 30.6475C128.975 29.7608 129.425 28.5952 129.425 27.1476C129.425 26.2076 129.218 25.3678 128.806 24.6299C128.395 23.8944 127.787 23.2884 127.05 22.88C126.305 22.4549 125.461 22.2334 124.603 22.2376ZM140.323 20.6866C142.245 20.6866 143.836 21.3838 145.099 22.7766C146.247 24.0456 146.821 25.5496 146.821 27.2854C146.821 29.0291 146.214 30.5535 145.002 31.8585C143.789 33.162 142.227 33.8153 140.323 33.8153C138.41 33.8153 136.846 33.162 135.632 31.857C134.419 30.5535 133.811 29.0291 133.811 27.2854C133.811 25.5574 134.385 24.0581 135.535 22.7875C136.796 21.3885 138.392 20.6882 140.323 20.6882V20.6866ZM140.323 22.2596C138.99 22.2596 137.846 22.7531 136.889 23.7401C135.933 24.7271 135.453 25.9209 135.453 27.3199C135.453 28.2223 135.673 29.0636 136.109 29.8438C136.519 30.5985 137.131 31.2245 137.877 31.6517C138.62 32.0763 139.435 32.2878 140.323 32.2878C141.21 32.2878 142.025 32.0763 142.768 31.6517C143.512 31.2272 144.101 30.6256 144.537 29.8438C144.97 29.0739 145.195 28.2047 145.19 27.3215C145.19 25.9193 144.71 24.7271 143.75 23.7401C142.788 22.7531 141.647 22.2596 140.323 22.2596ZM148.623 21.0094H150.335L154.515 30.096L158.66 21.0094H160.382L154.664 33.4941H154.377L148.623 21.0078V21.0094Z" fill="#232323"/>
</g>
</svg>
