<svg width="21" height="21" viewBox="0 0 21 21" fill="none" xmlns="http://www.w3.org/2000/svg">
<path d="M20.3496 6.13998H14.8672V0.653205C14.8672 0.479955 14.7986 0.313845 14.6767 0.19131C14.5547 0.0687755 14.3893 0 14.2168 0H6.79623C6.62372 0 6.45834 0.0687755 6.33633 0.19131C6.21442 0.313845 6.14586 0.479955 6.14586 0.653205V6.13998H0.65037C0.477855 6.13998 0.31248 6.20876 0.19047 6.33129C0.0685653 6.45383 0 6.61993 0 6.79318V14.2068C0 14.3801 0.0685653 14.5462 0.19047 14.6687C0.31248 14.7912 0.477855 14.86 0.65037 14.86H6.13284V20.3468C6.13284 20.52 6.20141 20.6862 6.32331 20.8087C6.44532 20.9312 6.61069 21 6.78321 21H14.2168C14.3893 21 14.5547 20.9312 14.6767 20.8087C14.7986 20.6862 14.8672 20.52 14.8672 20.3468V14.86H20.3496C20.5221 14.86 20.6875 14.7912 20.8095 14.6687C20.9314 14.5462 21 14.3801 21 14.2068V6.79318C21 6.61993 20.9314 6.45383 20.8095 6.33129C20.6875 6.20876 20.5221 6.13998 20.3496 6.13998Z" fill="#FFAF12"/>
</svg>
