<?xml version="1.0" encoding="UTF-8"?>
<svg xmlns="http://www.w3.org/2000/svg" version="1.1" viewBox="0 0 100 100" fill="#6a51ff">
  <!-- Generator: Adobe Illustrator 28.6.0, SVG Export Plug-In . SVG Version: 1.2.0 Build 709)  -->
  <g>
    <g id="Layer_1">
      <g>
        <path d="M80.8,18.8h-5.3v-5.3c0-1.2-1-2.3-2.3-2.3h-10.9c-1.2,0-2.3,1-2.3,2.3v5.3h-5.3c-1.2,0-2.3,1-2.3,2.3v10.9c0,1.2,1,2.3,2.3,2.3h5.3v5.3c0,1.2,1,2.3,2.3,2.3h10.9c1.2,0,2.3-1,2.3-2.3v-5.3h5.3c1.2,0,2.3-1,2.3-2.3v-10.9c0-1.2-1-2.3-2.3-2.3ZM71,31.9v5.3h-6.4v-5.3c0-1.2-1-2.3-2.3-2.3h-5.3v-6.4h5.3c1.2,0,2.3-1,2.3-2.3v-5.3h6.4v5.3c0,1.2,1,2.3,2.3,2.3h5.3v6.4h-5.3c-1.2,0-2.3,1-2.3,2.3Z" fill="inherit"/>
        <path d="M88.8,0h-42c-6.2,0-11.2,5-11.2,11.2v22.6H11.2C5,33.8,0,38.8,0,44.9v30.3C0,81.4,5,86.4,11.2,86.4h1.8v11.1c0,.9.6,1.8,1.4,2.2.3.2.7.2,1,.2.6,0,1.1-.2,1.5-.5l16.1-13h20.1c6.2,0,11.2-5,11.2-11.2v-22.6h2.4l16.1,13c.7.6,1.8.7,2.6.3.8-.4,1.4-1.3,1.4-2.2v-11.1h1.8c6.2,0,11.2-5,11.2-11.2V11.2c0-6.2-5-11.2-11.2-11.2ZM82.1,50.2v8.5s-12.9-10.4-12.9-10.4c-.4-.3-1-.5-1.5-.5h-20.9c-3.5,0-6.3-2.8-6.3-6.3V11.2c0-3.5,2.8-6.3,6.3-6.3h42c3.5,0,6.3,2.8,6.3,6.3v30.3c0,3.5-2.8,6.3-6.3,6.3h-4.2c-1.3,0-2.4,1.1-2.4,2.4ZM53.2,81.6h-20.9c-.6,0-1.1.2-1.5.5l-12.9,10.4v-8.5c0-1.3-1.1-2.4-2.5-2.4h-4.2c-3.5,0-6.3-2.8-6.3-6.3v-30.3c0-3.5,2.8-6.3,6.3-6.3h24.4v2.9c0,6.2,5,11.2,11.2,11.2h12.7v22.6c0,3.5-2.8,6.3-6.3,6.3Z" fill="inherit"/>
        <path d="M45.4,54.8h-26.4c-1.3,0-2.4,1.1-2.4,2.4s1.1,2.4,2.4,2.4h26.4c1.3,0,2.4-1.1,2.4-2.4s-1.1-2.4-2.4-2.4Z" fill="inherit"/>
        <path d="M45.4,66.9h-26.4c-1.3,0-2.4,1.1-2.4,2.4s1.1,2.4,2.4,2.4h26.4c1.3,0,2.4-1.1,2.4-2.4s-1.1-2.4-2.4-2.4Z" fill="inherit"/>
      </g>
    </g>
  </g>
</svg>
