<?xml version="1.0" encoding="UTF-8"?>
<svg xmlns="http://www.w3.org/2000/svg" version="1.1" viewBox="0 0 100 100" fill="#6a51ff">
  <!-- Generator: Adobe Illustrator 28.6.0, SVG Export Plug-In . SVG Version: 1.2.0 Build 709)  -->
  <g>
    <g id="Layer_1">
      <path d="M63.5,61.6s0,0-.1,0c-1.2-.1-2.1-1.1-2.1-2.3v-1.3c.7-.5,1.4-1.1,2-1.7,3.7-3.5,5.9-8.3,6.3-13.5,1.2-.5,2.8-1.8,3.7-5.1.5-2.2.4-3.9-.4-5.3-.3-.4-.6-.8-.9-1,.6-2,1.1-5,1.3-9.8.3-5.9-1.4-10.8-4.9-14.5C61.6,0,50.5,0,50,0s-11.6,0-18.3,7.1c-3.5,3.7-5.2,8.6-4.9,14.5.2,4.8.7,7.8,1.3,9.8-.3.3-.6.6-.9,1-.8,1.3-1,3.1-.4,5.3.9,3.4,2.5,4.7,3.7,5.2.6,6.2,3.7,11.7,8.3,15.1v1.4c0,1.2-.9,2.2-2.1,2.3-17.4,1.4-28.2,11.1-28.2,25.3v11.6c0,.8.7,1.5,1.5,1.5h80.1c.8,0,1.5-.7,1.5-1.5v-11.6c0-14.1-10.8-23.8-28.1-25.3h0ZM50,66.4l-8.2-6.5s0,0,0,0c2.2,1.1,4.7,1.8,7.3,1.9.3,0,.6,0,1,0,2.9,0,5.7-.7,8.2-1.9,0,0,0,0,0,0l-8.2,6.5ZM40.5,62.8l7.5,5.9-3,5-6-9.7c.6-.3,1.1-.7,1.5-1.2ZM59.5,62.8c.4.5.9.9,1.5,1.2l-6,9.7-3-5,7.5-5.9ZM70.3,37c-.2.8-.4,1.3-.7,1.8v-3.9c.2-.1.5-.3.7-.5.2.6.2,1.5,0,2.6ZM33.9,9.2c5.8-6.1,16-6.2,16.1-6.2s10.3,0,16.1,6.2c2.9,3.1,4.3,7.2,4.1,12.3-.3,5.7-.9,8.4-1.4,9.6-.6-3.9-2.6-11.5-8-11.2-3.3.1-6.4.9-8.5,1.5-1.5.4-3.1.4-4.6,0h0c-2.1-.6-5.2-1.4-8.5-1.5,0,0-.2,0-.2,0-5.2,0-7.1,7.4-7.7,11.2-.5-1.3-1.1-4-1.4-9.7-.2-5.1,1.1-9.2,4.1-12.3ZM29.7,34.3c.2.2.5.4.7.5v3.9c-.2-.4-.5-1-.7-1.8-.3-1.2-.3-2.1,0-2.6ZM33.5,41.6c0,0,0-.1,0-.2,0,0,0,0,0,0,0-.2,0-.3,0-.5v-6.3s0,0,0,0c.3-.3.4-.6.5-1,.3-3.5,2-10.7,5.1-10.6,3,.1,5.9.8,7.8,1.4,2.1.6,4.3.6,6.3,0,1.9-.6,4.8-1.3,7.8-1.4,3.1,0,4.8,7.1,5.1,10.6,0,.4.2.7.5,1,0,0,0,0,0,0v6.8c0,4.8-2,9.5-5.4,12.8-3.3,3.1-7.5,4.7-12,4.5-8.6-.4-15.4-7.9-15.7-17.1ZM88.5,97h-12.2v-10.8c0-.8-.7-1.5-1.5-1.5s-1.5.7-1.5,1.5v10.8H26.6v-10.8c0-.8-.7-1.5-1.5-1.5s-1.5.7-1.5,1.5v10.8h-12.2v-10.1c0-12.2,9.4-20.6,24.5-22.1l7.8,12.6c.3.4.8.7,1.3.7h0c.5,0,1-.3,1.3-.7l3.6-6.1,3.6,6.1c.3.5.8.7,1.3.7h0c.5,0,1-.3,1.3-.7l7.8-12.6c15.1,1.6,24.5,10,24.5,22.1v10.1Z" fill="inherit"/>
    </g>
  </g>
</svg>
