<?xml version="1.0" encoding="UTF-8"?>
<svg xmlns="http://www.w3.org/2000/svg" version="1.1" viewBox="0 0 100 100" fill="#6a51ff">
  <!-- Generator: Adobe Illustrator 28.6.0, SVG Export Plug-In . SVG Version: 1.2.0 Build 709)  -->
  <g>
    <g id="Layer_1">
      <g id="healthicons_medicines-outline">
        <path id="Path_3" d="M86.7,26.8c1.5.3,3-.6,3.4-2.1.3-1.5-.6-3-2.1-3.4l-18.6-4.3c-1.5-.4-3,.6-3.4,2.1s.6,3,2.1,3.4c0,0,0,0,0,0l18.6,4.3Z" fill="inherit"/>
        <path id="Path_4" d="M29.2,8.8h0l14.2,33.6c1.1,2.6-.2,5.6-2.8,6.7-.8.3-1.6.4-2.4.4h0l-33.3-2.4h0c-2.8-.1-5-2.5-4.9-5.3,0-.8.3-1.7.7-2.4h0L19.8,8.1h0c1.6-2.5,4.9-3.3,7.4-1.7.9.6,1.6,1.4,2,2.4ZM5.2,42.5l33.3,2.4h.2c.1,0,.3,0,.4-.2l.3-.3v-.3c-.1,0-14.3-33.6-14.3-33.6h0s0-.2,0-.2h-.2c-.2-.2-.5-.2-.7-.1h-.2c0,0,0,.2,0,.2h0c0,0-19.1,31.3-19.1,31.3l-.2.4.3.3h0c0,0,0,0,0,0,0,0,0,0,.1,0,0,0,.1,0,.2,0h0ZM37.4,68.9l-.2-.5.2.5,30.5-14.2h0c8.2-3.8,17.9-.3,21.7,7.9,3.8,8.2.3,17.9-7.9,21.7h0l.2.5-.2-.5-30.5,14.2c-8.2,3.8-17.9.3-21.7-7.9-3.8-8.2-.3-17.9,7.9-21.7ZM61.8,88.5l.5-.2-.2-.5-9.5-20.4-.2-.5-.5.2-12.6,5.8h0c-5.9,2.7-8.5,9.7-5.8,15.6s9.7,8.5,15.6,5.8c0,0,.1,0,.2,0h0l12.5-5.8ZM66.2,85.9l.2.5.5-.2,12.9-6h0c5.9-2.7,8.6-9.6,5.9-15.5-2.7-5.9-9.6-8.6-15.5-5.9-.1,0-.2.1-.3.2h0l-12.9,6-.5.2.2.5,9.5,20.4ZM93.6,37.4c-8.6,8.6-22.5,8.6-31,0s-8.6-22.5,0-31c8.6-8.6,22.5-8.6,31,0,4.1,4.1,6.4,9.7,6.4,15.5,0,5.8-2.3,11.4-6.4,15.5h0ZM78.1,39.3c9.6,0,17.4-7.8,17.4-17.4,0-9.6-7.8-17.4-17.4-17.4-9.6,0-17.4,7.8-17.4,17.4,0,4.6,1.8,9,5.1,12.3,3.3,3.3,7.7,5.1,12.3,5.1h0Z" fill="inherit"/>
      </g>
    </g>
  </g>
</svg>
