<?xml version="1.0" encoding="UTF-8"?>
<svg xmlns="http://www.w3.org/2000/svg" version="1.1" viewBox="0 0 100 100" fill="#6a51ff">
  <!-- Generator: Adobe Illustrator 28.6.0, SVG Export Plug-In . SVG Version: 1.2.0 Build 709)  -->
  <g>
    <g id="Layer_1">
      <path d="M91.9,26.4c-3.7-3.7-8.6-5.7-13.8-5.7s-7.2,1.6-9.5,4.5c-2.3-2.8-5.8-4.5-9.5-4.5-10.8,0-19.5,8.8-19.5,19.5s12.3,21,21.3,29.2c2.1,1.9,4,3.6,5.4,5.1-.5,11.6-10.2,20.9-21.8,20.9h-.5c-12,0-21.8-9.8-21.8-21.8v-1.1s0-2.5,0-2.5v-18.4c8.4-1,14.9-7.4,14.9-14.9V9.6c0-2.8-1.9-5.3-4.6-6-.9-2.2-3-3.6-5.4-3.6s-5.8,2.6-5.8,5.8,2.6,5.8,5.8,5.8,2.4-.4,3.4-1.1c.6-.5,1.2-1.1,1.6-1.7.2.2.3.6.3.9v27c0,5.7-5.6,10.3-12.5,10.3s-12.5-4.6-12.5-10.3V9.6c0-.3.1-.6.3-.9.4.7.9,1.3,1.6,1.7,1,.7,2.2,1.1,3.4,1.1,3.2,0,5.8-2.6,5.8-5.8S15.6,0,12.4,0s-4.5,1.5-5.4,3.6c-2.7.7-4.6,3.2-4.6,6v27c0,7.5,6.5,13.9,14.9,14.9v18.4s0,2.5,0,2.5v1.1h0c0,14.6,11.9,26.5,26.5,26.5h.5c14.2,0,26-11.4,26.5-25.6,1.4-1.4,3.3-3.1,5.4-5.1,9-8.2,21.3-19.4,21.3-29.2,0-5.2-2-10.1-5.7-13.8ZM68.5,41.1c4.5,0,8.2,3.7,8.2,8.2s-3.7,8.2-8.2,8.2-8.2-3.7-8.2-8.2,3.7-8.2,8.2-8.2ZM70.9,61.9c6.1-1.1,10.5-6.4,10.5-12.7s-5.8-12.9-12.9-12.9-12.9,5.8-12.9,12.9,4.5,11.6,10.5,12.7v6c-.7-.7-1.5-1.4-2.3-2.1-7.9-7.2-19.7-18-19.7-25.7s6.6-14.8,14.8-14.8,6.3,2.1,7.3,5.3c.3,1,1.2,1.6,2.2,1.6s1.9-.7,2.2-1.6c1-3.2,3.9-5.3,7.3-5.3,8.2,0,14.8,6.6,14.8,14.8,0,7.7-11.9,18.5-19.7,25.7-.8.7-1.5,1.4-2.3,2.1v-6ZM28,5.8c0,.3-.2.7-.4.9-.2.1-.4.2-.6.2-.6,0-1.1-.5-1.1-1.1s.5-1.1,1.1-1.1,1.1.5,1.1,1.1ZM11.3,5.8c0-.6.5-1.1,1.1-1.1s1.1.5,1.1,1.1-.5,1.1-1.1,1.1-.4,0-.6-.2c-.3-.2-.4-.5-.4-.9Z" fill="inherit"/>
    </g>
  </g>
</svg>
