<?xml version="1.0" encoding="UTF-8"?>
<svg xmlns="http://www.w3.org/2000/svg" version="1.1" viewBox="0 0 100 100" fill="#6a51ff">
  <!-- Generator: Adobe Illustrator 28.6.0, SVG Export Plug-In . SVG Version: 1.2.0 Build 709)  -->
  <g>
    <g id="Layer_1">
      <g>
        <path d="M48.5,62.9c-.1-.7-.7-1.3-1.5-1.3-.6,0-1.2.4-1.4,1-.2.6,0,1.2.3,1.7.3.3.7.4,1.1.4s.4,0,.6-.1c.6-.2.9-.8.9-1.4v-.2s0,0,0,0Z" fill="inherit"/>
        <path d="M46,55.6c.8,0,1.5-.7,1.5-1.5s-.7-1.5-1.5-1.5-.8.2-1.1.5c-.3.3-.4.7-.4,1.1,0,.4.2.8.5,1.1.3.3.7.4,1.1.4h0Z" fill="inherit"/>
        <path d="M45,46.5c.8,0,1.5-.7,1.5-1.5s-.7-1.5-1.5-1.5-.8.2-1.1.4c-.3.3-.4.7-.4,1.1,0,.8.7,1.5,1.5,1.5h0Z" fill="inherit"/>
        <path d="M41.9,56.6c-.6,0-1.2.4-1.4,1-.2.6,0,1.2.3,1.7.3.3.7.4,1.1.4s.4,0,.6-.1c.6-.2.9-.8.9-1.4,0-.4-.2-.8-.4-1.1-.3-.3-.7-.4-1.1-.4Z" fill="inherit"/>
        <path d="M52.5,59.1c0-.8-.7-1.5-1.5-1.5h0c-.8,0-1.5.7-1.5,1.5,0,.8.7,1.5,1.5,1.5s1.5-.7,1.5-1.5ZM51,58.1h0s0,0,0,0Z" fill="inherit"/>
        <path d="M44,37.4c.8,0,1.5-.7,1.5-1.5s-.7-1.5-1.5-1.5-.8.2-1.1.4c-.3.3-.4.7-.4,1.1,0,.8.7,1.5,1.5,1.5Z" fill="inherit"/>
        <path d="M41.5,40c0-.8-.7-1.5-1.5-1.5s-.8.2-1.1.4c-.3.3-.4.7-.4,1.1,0,.8.7,1.5,1.5,1.5s1.5-.7,1.5-1.5Z" fill="inherit"/>
        <path d="M52,66.6h0c-.8,0-1.5.7-1.5,1.5,0,.8.7,1.5,1.5,1.5s1.5-.7,1.5-1.5c0-.8-.7-1.5-1.5-1.5Z" fill="inherit"/>
        <path d="M37.5,44c0-.8-.7-1.5-1.5-1.5s-.8.2-1.1.5c-.3.3-.4.7-.4,1.1,0,.8.7,1.5,1.5,1.5s1.5-.7,1.5-1.5Z" fill="inherit"/>
        <path d="M42.5,49c0-.8-.7-1.5-1.5-1.5s-.8.2-1.1.5c-.3.3-.4.7-.4,1.1,0,.8.7,1.5,1.5,1.5s1.5-.7,1.5-1.5Z" fill="inherit"/>
        <path d="M31.9,46.5c-.6,0-1.2.4-1.4,1-.2.6,0,1.2.3,1.7.3.3.7.4,1.1.4s.4,0,.6-.1c.6-.2.9-.8.9-1.4h0c0,0,0,0,0,0,0-.8-.7-1.5-1.6-1.5Z" fill="inherit"/>
        <path d="M36.9,51.5h0c-.6,0-1.2.4-1.4,1-.2.6,0,1.2.3,1.7.3.3.7.4,1.1.4s.4,0,.6-.1c.4-.2.7-.5.8-.8h.1v-.6c0-.4-.2-.8-.5-1.1-.3-.3-.7-.4-1.1-.4Z" fill="inherit"/>
        <path d="M54.1,44.4c-.8,0-1.5.7-1.5,1.5,0,.8.7,1.5,1.5,1.5s1.5-.7,1.5-1.5c0-.8-.7-1.5-1.5-1.5h0ZM54.1,45h0s0,0,0,0Z" fill="inherit"/>
        <path d="M55,53.5c-.8,0-1.5.7-1.5,1.5,0,.8.7,1.5,1.5,1.5s1.5-.7,1.5-1.5c0-.8-.7-1.5-1.5-1.5h0ZM55,54.1h0s0,0,0,0Z" fill="inherit"/>
        <path d="M52.5,38.3c.2,0,.4.1.6.1.4,0,.8-.2,1.1-.4.4-.4.6-1.1.3-1.7-.2-.6-.8-.9-1.4-1-.4,0-.8.2-1.1.5-.3.3-.4.7-.4,1.1h0c0,.6.4,1.2.9,1.4Z" fill="inherit"/>
        <path d="M49,39.4c-.8,0-1.5.7-1.5,1.5,0,.8.7,1.5,1.5,1.5s1.5-.7,1.5-1.5c0-.8-.7-1.5-1.5-1.5h0ZM49,40h0s0,0,0,0Z" fill="inherit"/>
        <path d="M50,48.5c-.8,0-1.5.7-1.5,1.5,0,.8.7,1.5,1.5,1.5s1.5-.7,1.5-1.5c0-.8-.7-1.5-1.5-1.5h0ZM50,49.1h0s0,0,0,0Z" fill="inherit"/>
        <path d="M46.5,31.9c0,.8.7,1.5,1.5,1.5s1.5-.7,1.5-1.5c0-.8-.7-1.5-1.5-1.5h0c-.8,0-1.5.7-1.5,1.5Z" fill="inherit"/>
        <path d="M83,50l10.2-10.2c5.9-5.9,8.2-14.5,6-22.5-2.2-8-8.5-14.3-16.5-16.5-8-2.2-16.7.2-22.5,6l-10.2,10.2-10.2-10.2C33.9,1,25.3-1.3,17.3.8,9.3,2.9,2.9,9.3.8,17.3c-2.2,8,.2,16.7,6,22.5l10.2,10.2-10.2,10.2C2.4,64.6,0,70.5,0,76.7s2.4,12.1,6.8,16.5c4.4,4.4,10.3,6.8,16.5,6.8s12.1-2.4,16.5-6.8l10.2-10.2,10.2,10.2c4.4,4.4,10.4,6.8,16.5,6.8,2,0,4-.3,6-.8,8-2.2,14.3-8.5,16.5-16.5,2.1-8-.2-16.7-6-22.5l-10.2-10.2ZM47.8,80.8l-10.2,10.2c-5.1,5.1-12.6,7.1-19.6,5.2-7-1.9-12.5-7.4-14.3-14.3-1.9-7,.1-14.5,5.2-19.6l10.2-10.2,28.6,28.6ZM52.2,19.2l10.2-10.2c5.1-5.1,12.6-7,19.5-5.2,6.9,1.9,12.4,7.3,14.3,14.3,1.9,6.9-.1,14.4-5.2,19.5l-10.2,10.2-28.7-28.6ZM96.9,76.7c0,5.4-2.1,10.5-5.9,14.3l-.2.2h0c-3.8,3.7-8.8,5.7-14.1,5.7s-10.5-2.1-14.3-5.9L9,37.6c-5.1-5.1-7.1-12.6-5.2-19.6,1.9-7,7.4-12.5,14.3-14.3,1.7-.5,3.5-.7,5.2-.7,5.3,0,10.5,2.1,14.3,5.9l53.4,53.4c3.8,3.8,5.9,8.9,5.9,14.3Z" fill="inherit"/>
        <path d="M48.6,22.4c-.6-.6-1.6-.6-2.2,0l-24.1,24.1c-.3.3-.4.7-.4,1.1s.2.8.4,1.1l29.1,29c.3.3.7.4,1.1.4s.8-.2,1.1-.4l24.1-24.1c.3-.3.4-.7.4-1.1s-.2-.8-.4-1.1l-29-29ZM74.4,52.5l-21.9,21.9-26.9-26.9,21.9-21.9,26.9,26.9Z" fill="inherit"/>
        <path d="M59.1,49.5c-.8,0-1.5.7-1.5,1.5,0,.8.7,1.5,1.5,1.5s1.5-.7,1.5-1.5c0-.8-.7-1.5-1.5-1.5h0Z" fill="inherit"/>
        <path d="M64.1,54.5c-.8,0-1.5.7-1.5,1.5,0,.8.7,1.5,1.5,1.5s1.5-.7,1.5-1.5c0-.8-.7-1.5-1.5-1.5h0Z" fill="inherit"/>
        <path d="M62.5,48.3c.2,0,.4.1.6.1.4,0,.8-.2,1.1-.4.4-.4.6-1.1.3-1.7-.4-.9-1.8-1.3-2.5-.5-.3.3-.4.7-.4,1.1,0,.6.4,1.2.9,1.4Z" fill="inherit"/>
        <path d="M67.6,53.4c.2,0,.4.1.6.1.4,0,.8-.2,1.1-.4.4-.4.6-1.1.3-1.7-.2-.6-.8-.9-1.4-1-.4,0-.8.2-1.1.5-.3.3-.4.7-.4,1.1,0,.6.4,1.2.9,1.4Z" fill="inherit"/>
        <path d="M60.1,58.5c-.8,0-1.5.7-1.5,1.5,0,.8.7,1.5,1.5,1.5s1.5-.7,1.5-1.5c0-.8-.7-1.5-1.5-1.5h0Z" fill="inherit"/>
        <path d="M56,62.6h0c-.8,0-1.5.7-1.5,1.5,0,.8.7,1.5,1.5,1.5s1.5-.7,1.5-1.5c0-.8-.7-1.5-1.5-1.5Z" fill="inherit"/>
        <path d="M57.5,43.3c.2,0,.4.1.6.1.4,0,.8-.2,1.1-.4.4-.4.6-1.1.3-1.7-.4-.9-1.8-1.2-2.5-.5-.3.3-.4.7-.4,1.1,0,.6.4,1.2.9,1.4Z" fill="inherit"/>
      </g>
    </g>
  </g>
</svg>
