<?xml version="1.0" encoding="UTF-8"?>
<svg xmlns="http://www.w3.org/2000/svg" version="1.1" viewBox="0 0 100 100" fill="#6a51ff">
  <!-- Generator: Adobe Illustrator 28.6.0, SVG Export Plug-In . SVG Version: 1.2.0 Build 709)  -->
  <g>
    <g id="Layer_1">
      <path d="M8.8,100h82.3c.8,0,1.5-.7,1.5-1.5v-6.5c0-10.3-6.1-19.3-14.8-23.5,2.6-10.9,5.2-34-2.4-51.8C71.1,6.4,61.3,0,49.9,0s-21.1,6.4-25.6,16.8c-7.6,17.8-5,40.9-2.4,51.8-8.7,4.2-14.7,13.1-14.7,23.4v6.5c0,.8.7,1.5,1.5,1.5h0ZM27.2,18c3.9-9.2,12.7-14.9,22.8-14.9s18.8,5.7,22.8,14.9c6.7,15.7,5.1,37.4,2.3,49.4-2.2-.8-4.6-1.2-7.1-1.4-.1,0-.2,0-.3,0-.4,0-.7,0-1.1,0h-3.3c-1.6,0-2.9-1.2-3.2-2.7,6.9-4.9,12.2-15.5,12.2-32.6,0-.8-.6-1.4-1.3-1.5-3.7-.4-6.9-2-9.6-4.6-3.8-3.7-9.6-4.3-14.1-1.4-8.5,5.4-15.9,5.9-18.1,5.8h0c-.8,0-1.5.7-1.5,1.5,0,13.5,3.4,24.3,9.6,30.6.8.8,1.7,1.6,2.6,2.2-.3,1.5-1.6,2.7-3.2,2.7h-3.3c-.4,0-.8,0-1.2,0-.1,0-.3,0-.4,0-2.5.1-4.8.6-7,1.4-2.8-12-4.4-33.7,2.3-49.4h0ZM50,63.5c-3.9,0-7.5-1.6-10.5-4.6-5.5-5.5-8.5-15-8.7-27,3.4-.2,10.4-1.3,18.2-6.2,3.2-2.1,7.6-1.6,10.3,1,2.8,2.7,6.2,4.5,10,5.2-.3,19-8,31.6-19.2,31.6h0ZM42.6,64.8c2.3,1.1,4.8,1.7,7.4,1.7s5-.6,7.4-1.8c.9,2.4,3.2,4.1,5.9,4.1h1.6c-5.4,8.1-7.5,8.7-14.9,8.7h-.2c-7.2,0-9.3-.7-14.8-8.7h1.7c2.7,0,5-1.7,5.9-4.1h0ZM10.4,92c0-12.1,9.3-22,21.1-23,6.5,9.9,9.3,11.7,18.4,11.7h.1c9.2,0,12-1.7,18.5-11.7,2.5.2,4.8.8,7,1.7,0,0,.1,0,.2.1,0,0,0,0,0,0,8.2,3.6,13.9,11.7,13.9,21.2v4.9s-12.5,0-12.5,0v-7.4c0-.8-.7-1.5-1.5-1.5s-1.5.7-1.5,1.5v7.4H25.9v-7.4c0-.8-.7-1.5-1.5-1.5s-1.5.7-1.5,1.5v7.4h-12.5v-5Z" fill="inherit"/>
    </g>
  </g>
</svg>
