<svg width="171" height="45" viewBox="0 0 171 45" fill="none" xmlns="http://www.w3.org/2000/svg">
<mask id="mask0_18462_18926" style="mask-type:luminance" maskUnits="userSpaceOnUse" x="0" y="9" width="170" height="27">
<path d="M0.809922 9.375H169.56V35.625H0.794922L0.809922 9.375Z" fill="white"/>
</mask>
<g mask="url(#mask0_18462_18926)">
<path d="M168.375 19.905C168.137 19.899 167.902 19.9643 167.701 20.0925C167.499 20.2207 167.341 20.4059 167.245 20.6246C167.15 20.8433 167.122 21.0855 167.165 21.3202C167.208 21.5549 167.319 21.7715 167.486 21.9423C167.653 22.1132 167.866 22.2305 168.1 22.2793C168.333 22.3281 168.576 22.3061 168.797 22.2162C169.018 22.1264 169.207 21.9726 169.341 21.7747C169.474 21.5768 169.545 21.3436 169.545 21.105C169.552 20.8706 169.489 20.6395 169.363 20.4416C169.238 20.2437 169.055 20.0881 168.84 19.995C168.693 19.9336 168.535 19.903 168.375 19.905ZM168.375 22.095C168.175 22.104 167.976 22.0528 167.805 21.9479C167.634 21.8431 167.498 21.6895 167.415 21.5068C167.332 21.3241 167.306 21.1208 167.339 20.923C167.373 20.7252 167.465 20.5419 167.603 20.3968C167.742 20.2517 167.921 20.1515 168.117 20.1089C168.313 20.0663 168.517 20.0834 168.704 20.158C168.89 20.2325 169.05 20.3612 169.162 20.5273C169.275 20.6934 169.335 20.8894 169.335 21.09C169.341 21.2198 169.321 21.3495 169.275 21.4712C169.23 21.5929 169.16 21.7041 169.07 21.7981C168.981 21.8921 168.873 21.9668 168.753 22.0179C168.634 22.0689 168.505 22.0951 168.375 22.095ZM64.8752 19.935C62.2952 19.935 60.5852 22.395 60.5852 25.08C60.5852 27.765 62.2352 30.225 65.0552 30.225C67.0352 30.225 68.1602 28.875 68.6102 27.33L67.7702 27.105C67.3802 28.155 66.6902 28.995 65.3102 28.995C63.7202 28.995 62.6552 27.48 62.6552 25.095H68.7602V24.525C68.7602 21.975 67.2602 19.935 64.8602 19.935H64.8752ZM62.6852 24.12C62.8802 22.215 63.6602 21.045 64.8452 21.045C65.9252 21.045 66.6152 22.05 66.6902 24.12H62.7002H62.6852ZM87.6152 16.98L87.9152 16.995C88.6352 17.04 89.1902 17.325 89.1902 18.135V22.425H84.0602V18.15C84.0602 17.325 84.6152 17.055 85.3352 17.01L85.5752 16.98V16.29H80.4002V16.98L80.7002 16.995C81.4202 17.04 81.9752 17.325 81.9752 18.135V28.155C81.9752 28.98 81.4202 29.28 80.7002 29.295L80.4002 29.325V30H85.5902V29.325L85.3202 29.295C84.6002 29.25 84.0452 28.965 84.0452 28.155V23.49H89.1902V28.155C89.1902 28.98 88.6352 29.28 87.9152 29.295L87.6152 29.325V30H92.8202V29.325L92.5502 29.295C91.8152 29.25 91.2602 28.965 91.2602 28.155V18.15C91.2602 17.325 91.8152 17.055 92.5502 17.01L92.8202 16.98V16.29H87.6002V16.98H87.6152ZM163.365 19.935C160.785 19.935 159.075 22.395 159.075 25.08C159.075 27.78 160.725 30.225 163.545 30.225C165.54 30.225 166.65 28.875 167.1 27.345L166.26 27.105C165.885 28.155 165.18 29.01 163.8 29.01C162.21 29.01 161.145 27.48 161.145 25.11H167.25V24.525C167.25 21.975 165.75 19.935 163.35 19.935H163.365ZM161.175 24.135C161.37 22.23 162.15 21.06 163.335 21.06C164.415 21.06 165.105 22.065 165.18 24.12H161.175V24.135ZM38.2352 16.29H33.6752V16.98L33.9752 16.995C34.3466 17.0106 34.6968 17.1722 34.9496 17.4447C35.2024 17.7172 35.3374 18.0785 35.3252 18.45V25.26C35.3252 27.465 34.1852 28.83 32.3702 28.83C30.5702 28.83 29.4752 27.39 29.4752 25.23V18.24C29.4752 17.49 29.8802 17.04 30.7502 16.995L31.0202 16.965V16.29H25.8152V16.98L26.1152 16.995C26.9402 17.055 27.3752 17.475 27.3752 18.255V25.53C27.3752 28.23 28.9652 30.33 32.0102 30.33C34.6202 30.33 36.5702 28.395 36.5702 25.47V18.45C36.5622 18.2623 36.5917 18.075 36.6571 17.8989C36.7225 17.7228 36.8224 17.5616 36.9509 17.4247C37.0795 17.2877 37.2341 17.1778 37.4057 17.1015C37.5773 17.0251 37.7624 16.9838 37.9502 16.98L38.2352 16.95V16.29ZM58.4252 28.92C57.6002 28.92 57.3302 28.32 57.3302 27.615V21.255H60.0302V20.235H57.3302V17.19H56.3402C55.9652 19.47 54.8252 20.295 53.5952 20.55V21.24H55.3952V27.81C55.3952 29.325 56.3252 30.21 57.7952 30.21C59.1752 30.21 60.0752 29.205 60.4952 27.765L59.7752 27.57C59.5052 28.41 59.0552 28.92 58.4252 28.92ZM51.2852 18.465C51.6293 18.465 51.9593 18.3283 52.2027 18.085C52.446 17.8416 52.5827 17.5116 52.5827 17.1675C52.5827 16.8234 52.446 16.4934 52.2027 16.25C51.9593 16.0067 51.6293 15.87 51.2852 15.87C50.9411 15.87 50.6111 16.0067 50.3677 16.25C50.1244 16.4934 49.9877 16.8234 49.9877 17.1675C49.9877 17.5116 50.1244 17.8416 50.3677 18.085C50.6111 18.3283 50.9411 18.465 51.2852 18.465ZM47.2202 28.185V22.8C47.2202 21.285 46.2752 19.995 44.4152 19.995C43.759 19.9894 43.1191 20.1991 42.5935 20.5919C42.0679 20.9848 41.6856 21.5391 41.5052 22.17V20.04L38.2052 20.295V20.94L38.5952 20.955C39.1952 21 39.5702 21.3 39.5702 22.095V28.17C39.5702 28.995 39.1652 29.28 38.4902 29.325H38.1902V30H42.8402V29.355H42.5852C41.9102 29.31 41.5052 29.025 41.5052 28.2V24.96C41.5352 22.605 42.5552 21.195 43.7552 21.195C44.6702 21.195 45.2702 21.825 45.2702 23.04V28.185C45.2702 29.01 44.8652 29.295 44.1902 29.34H43.8902V30H48.5402V29.355H48.2702C47.6402 29.295 47.2202 29.01 47.2202 28.185ZM52.3052 28.185V20.055L48.9002 20.31V20.955L49.3952 20.97C49.9952 21 50.3852 21.315 50.3852 22.11V28.185C50.3852 29.01 49.9652 29.295 49.3052 29.34H49.0052V30H53.6552V29.355H53.3702C52.7102 29.295 52.3052 29.01 52.3052 28.185ZM78.4052 28.185V16.02L75.0752 16.32V16.98L75.5102 16.995C76.1102 17.025 76.4852 17.325 76.4852 18.135V21.675C76.2719 21.133 75.8935 20.6718 75.4035 20.3568C74.9135 20.0418 74.3369 19.889 73.7552 19.92C71.1902 19.92 69.7352 22.38 69.7352 25.065C69.7352 27.765 71.1902 30.21 73.7552 30.21C74.3422 30.2377 74.9229 30.0783 75.4135 29.7548C75.9041 29.4313 76.2794 28.9604 76.4852 28.41V30H79.7552V29.34H79.5002C78.8402 29.28 78.4202 28.995 78.4202 28.17L78.4052 28.185ZM74.0852 29.1C72.7202 29.1 71.8052 27.555 71.8052 25.08C71.8052 22.605 72.7052 21.045 74.0852 21.045C75.5402 21.045 76.4852 22.62 76.4852 25.08C76.4852 27.525 75.5402 29.1 74.0852 29.1ZM131.685 28.185V22.8C131.685 21.285 130.725 19.995 128.865 19.995C128.212 19.9927 127.575 20.2039 127.053 20.5965C126.53 20.9891 126.15 21.5416 125.97 22.17V16.02L122.625 16.32V16.965L123.06 16.98C123.66 17.01 124.05 17.31 124.05 18.12V28.17C124.05 28.995 123.63 29.28 122.955 29.325H122.655V30H127.305V29.355H127.05C126.375 29.31 125.97 29.025 125.97 28.2V24.96C126 22.605 127.02 21.195 128.22 21.195C129.15 21.195 129.735 21.825 129.735 23.04V28.185C129.735 29.01 129.33 29.295 128.655 29.34H128.355V30H133.005V29.355H132.75C132.09 29.295 131.67 29.01 131.67 28.185H131.685ZM138.195 28.98C136.605 28.98 135.54 27.465 135.54 25.08C135.54 22.68 136.59 21.09 138.195 21.09C138.494 21.0717 138.794 21.1231 139.07 21.2402C139.346 21.3574 139.591 21.537 139.785 21.765C139.633 21.8614 139.506 21.994 139.417 22.151C139.328 22.308 139.279 22.4846 139.275 22.665C139.275 22.9435 139.386 23.2105 139.583 23.4075C139.78 23.6044 140.047 23.715 140.325 23.715C140.471 23.7136 140.615 23.6819 140.748 23.6218C140.881 23.5616 141 23.4744 141.097 23.3658C141.195 23.2571 141.268 23.1293 141.314 22.9906C141.359 22.8518 141.375 22.7052 141.36 22.56C141.36 21.39 140.175 19.935 138.075 19.935C135.15 19.935 133.47 22.395 133.47 25.08C133.47 27.765 135.12 30.225 137.94 30.225C139.89 30.225 140.985 28.92 141.42 27.45L140.565 27.195C140.19 28.2 139.515 28.995 138.195 28.995V28.98ZM149.52 28.38V23.28C149.52 21.18 148.2 19.935 145.98 19.935C144.09 19.935 142.38 21.195 142.38 22.635C142.378 22.7729 142.403 22.9098 142.454 23.038C142.505 23.1661 142.581 23.283 142.677 23.3819C142.773 23.4807 142.888 23.5597 143.015 23.6143C143.141 23.6689 143.277 23.698 143.415 23.7C143.553 23.702 143.69 23.6768 143.818 23.6258C143.946 23.5749 144.063 23.4992 144.162 23.4031C144.261 23.307 144.34 23.1923 144.395 23.0657C144.449 22.939 144.478 22.8029 144.48 22.665C144.481 22.476 144.431 22.2903 144.336 22.1268C144.241 21.9634 144.105 21.8282 143.94 21.735C144.15 21.4748 144.418 21.2683 144.723 21.1326C145.029 20.997 145.362 20.9361 145.695 20.955C146.895 20.955 147.615 21.855 147.615 23.37V23.82L144.705 25.02C142.755 25.815 142.095 26.535 142.095 27.81C142.095 29.28 143.145 30.21 144.825 30.21C145.428 30.2093 146.016 30.0253 146.512 29.6824C147.008 29.3394 147.387 28.8538 147.6 28.29V28.59C147.6 29.595 148.305 30.195 149.49 30.195C149.91 30.195 150.33 30.135 150.735 30.015V29.355C149.895 29.46 149.52 29.145 149.52 28.38ZM147.6 26.16C147.495 27.885 146.625 29.04 145.44 29.04C145.245 29.0519 145.049 29.0211 144.867 28.9499C144.684 28.8786 144.52 28.7685 144.384 28.6272C144.249 28.4859 144.145 28.3169 144.082 28.1317C144.018 27.9466 143.995 27.7498 144.015 27.555C144.009 27.1606 144.128 26.7743 144.354 26.4511C144.58 26.1279 144.903 25.8843 145.275 25.755L147.615 24.735L147.6 26.16ZM157.05 19.965C155.895 19.965 154.92 20.73 154.485 22.065V20.055L151.185 20.31V20.955L151.575 20.97C152.175 21.015 152.55 21.315 152.55 22.11V28.185C152.55 29.01 152.145 29.295 151.47 29.34H151.17V30H155.82V29.355H155.55C154.89 29.31 154.47 29.025 154.47 28.2V24.885C154.515 22.425 155.58 20.895 156.87 20.895C156.99 20.886 157.11 20.9043 157.222 20.9485C157.334 20.9926 157.434 21.0615 157.515 21.15C157.346 21.2386 157.204 21.3725 157.106 21.5366C157.008 21.7008 156.958 21.8888 156.96 22.08C156.96 22.3585 157.071 22.6255 157.268 22.8225C157.465 23.0194 157.732 23.13 158.01 23.13C158.157 23.1285 158.301 23.0967 158.435 23.0367C158.569 22.9768 158.689 22.8899 158.787 22.7815C158.886 22.673 158.961 22.5455 159.008 22.4067C159.055 22.2679 159.073 22.121 159.06 21.975C159.068 21.7075 159.021 21.4411 158.92 21.1932C158.819 20.9452 158.668 20.721 158.475 20.535C158.287 20.3459 158.063 20.1977 157.815 20.0997C157.567 20.0016 157.302 19.9557 157.035 19.965H157.05ZM168.735 21.135C168.797 21.1125 168.85 21.0704 168.885 21.015C168.927 20.959 168.949 20.89 168.945 20.82C168.945 20.565 168.795 20.43 168.525 20.43H167.895V21.75H168.105V21.225H168.45C168.63 21.225 168.69 21.3 168.705 21.51C168.705 21.585 168.705 21.66 168.735 21.75H168.975C168.936 21.6925 168.915 21.6246 168.915 21.555C168.915 21.255 168.885 21.195 168.72 21.135H168.735ZM168.51 21.06H168.105V20.625H168.48C168.645 20.625 168.72 20.685 168.72 20.835C168.722 20.8651 168.718 20.8954 168.708 20.9237C168.697 20.952 168.681 20.9777 168.659 20.9991C168.638 21.0204 168.612 21.0369 168.584 21.0474C168.556 21.058 168.525 21.0622 168.495 21.06H168.51ZM109.53 28.38V23.28C109.53 21.18 108.21 19.935 105.99 19.935C104.1 19.935 102.39 21.195 102.39 22.635C102.388 22.7729 102.413 22.9098 102.464 23.038C102.515 23.1661 102.591 23.283 102.687 23.3819C102.783 23.4807 102.898 23.5597 103.025 23.6143C103.151 23.6689 103.287 23.698 103.425 23.7C103.563 23.702 103.7 23.6768 103.828 23.6258C103.956 23.5749 104.073 23.4992 104.172 23.4031C104.271 23.307 104.35 23.1923 104.405 23.0657C104.459 22.939 104.488 22.8029 104.49 22.665C104.492 22.4757 104.443 22.2893 104.348 22.1256C104.253 21.9619 104.116 21.8269 103.95 21.735C104.16 21.4748 104.428 21.2683 104.733 21.1326C105.039 20.997 105.372 20.9361 105.705 20.955C106.905 20.955 107.625 21.855 107.625 23.37V23.82L104.715 25.02C102.765 25.815 102.105 26.535 102.105 27.81C102.105 29.28 103.155 30.21 104.835 30.21C105.438 30.2093 106.026 30.0253 106.522 29.6824C107.018 29.3394 107.397 28.8538 107.61 28.29V28.59C107.61 29.595 108.315 30.195 109.5 30.195C109.92 30.195 110.34 30.135 110.745 30.015V29.355C109.905 29.46 109.53 29.145 109.53 28.38ZM107.61 26.16C107.505 27.885 106.635 29.04 105.45 29.04C105.256 29.0496 105.062 29.0172 104.881 28.9449C104.701 28.8727 104.538 28.7622 104.404 28.6212C104.27 28.4802 104.169 28.3119 104.106 28.1279C104.043 27.9439 104.021 27.7485 104.04 27.555C104.033 27.1624 104.149 26.7775 104.373 26.4545C104.596 26.1315 104.915 25.8869 105.285 25.755L107.625 24.75L107.61 26.16ZM121.965 27.57C121.695 28.395 121.245 28.92 120.615 28.92C119.79 28.92 119.52 28.305 119.52 27.6V21.255H122.22V20.235H119.52V17.19H118.545C118.155 19.47 117.015 20.295 115.785 20.55V21.24H117.585V27.81C117.585 29.325 118.515 30.21 119.985 30.21C121.365 30.21 122.265 29.205 122.685 27.765L121.965 27.57ZM97.4702 19.95C94.8902 19.95 93.1802 22.41 93.1802 25.095C93.1802 27.78 94.8302 30.24 97.6652 30.24C99.6452 30.24 100.77 28.89 101.22 27.345L100.365 27.12C99.9902 28.17 99.2852 29.01 97.9202 29.01C96.3302 29.01 95.2502 27.495 95.2502 25.11H101.355V24.54C101.355 21.99 99.8552 19.95 97.4552 19.95H97.4702ZM95.2952 24.135C95.4902 22.23 96.2702 21.06 97.4402 21.06C98.5202 21.06 99.2102 22.065 99.2852 24.135H95.2952ZM114.465 28.185V16.035L111.135 16.335V16.995L111.57 17.01C112.17 17.04 112.545 17.34 112.545 18.15V28.2C112.545 29.025 112.125 29.31 111.465 29.355H111.165V30H115.83V29.355H115.56C114.9 29.295 114.465 29.01 114.465 28.185ZM5.0252 34.44C5.8802 34.74 6.7802 34.89 7.6802 34.89C11.6702 34.89 14.4452 31.98 14.4452 26.49V10.095L15.9752 9.375V26.775C15.9752 32.37 13.0802 35.625 8.9852 35.625C7.5752 35.625 6.1952 35.205 5.0252 34.425V34.44ZM3.2852 32.775C4.1402 33.075 5.0402 33.255 5.9552 33.27C9.3002 33.27 11.5352 31.17 11.5352 26.43V11.34L13.0352 10.65V26.55C13.0352 31.5 10.5002 34.05 7.0052 34.05C5.65941 34.0274 4.35603 33.5755 3.2852 32.76V32.775ZM2.2352 31.275C2.9552 31.515 3.7052 31.635 4.4552 31.665C7.0652 31.665 8.6552 30.24 8.6552 26.49V12.615L10.1252 11.91V26.28C10.1252 30.48 8.1902 32.385 5.4302 32.385C4.27191 32.3776 3.14858 31.9873 2.2352 31.275ZM7.2752 26.91V13.17L0.825195 16.095V27.21C0.825195 29.34 2.1452 30.765 4.1252 30.765C6.0902 30.765 7.2752 29.325 7.2752 26.895V26.91Z" fill="#232323"/>
</g>
</svg>
